<?xml version="1.0" encoding="utf-8"?>
<!-- Generator: Adobe Illustrator 27.5.0, SVG Export Plug-In . SVG Version: 6.00 Build 0)  -->
<svg version="1.1" id="Layer_1" xmlns="http://www.w3.org/2000/svg" xmlns:xlink="http://www.w3.org/1999/xlink" x="0px" y="0px"
	 viewBox="0 0 500 500" style="enable-background:new 0 0 500 500;" xml:space="preserve">
<g>
	<g>
		<rect style="fill:#FFFFFF;" width="500" height="500"/>
		<g>
			<g>
				<path style="fill:#9D4710;" d="M490.463,460.351c0,8.059-40.59,12.369-99.767,19.583c-6.844,0.835-13.466,1.212-20.863,1.637
					c-6.501,0.374-13.752,0.469-20.615,0.781c-30.251,1.378-63.846,2.145-99.225,2.145c-132.809,0-240.456-10.812-240.456-24.146
					c0-0.49,0.144-0.98,0.447-1.456c7.522-12.657,112.086-22.69,240.009-22.69s232.501,10.033,240.023,22.69
					C490.319,459.371,490.463,459.861,490.463,460.351z"/>
				<path style="fill:#E2AE5A;" d="M490.016,458.895c-7.537,12.643-112.115,22.676-240.023,22.676S17.52,471.538,9.984,458.895
					c7.522-12.657,112.086-22.69,240.009-22.69S482.494,446.238,490.016,458.895z"/>
				<path style="fill:#F6C370;" d="M402.558,458.892c-4.79,8.036-71.262,14.413-152.563,14.413s-147.763-6.377-152.554-14.413
					c4.781-8.045,71.244-14.422,152.554-14.422C331.305,444.47,397.777,450.847,402.558,458.892z"/>
				<path style="fill:#BD790D;" d="M328.195,458.89c-2.455,4.119-36.526,7.388-78.197,7.388c-41.671,0-75.737-3.269-78.193-7.388
					c2.451-4.124,36.516-7.392,78.193-7.392C291.674,451.498,325.744,454.767,328.195,458.89z"/>
			</g>
			<g>
				<path style="fill:#691924;" d="M356.809,281.817H145.937c-9.668,0-17.506,7.838-17.506,17.506v84.175h245.882v-84.175
					C374.314,289.655,366.477,281.817,356.809,281.817z"/>
				<rect x="128.432" y="383.497" style="fill:#9E382E;" width="246.447" height="69.03"/>
				<polygon style="fill:#8A3128;" points="148.229,383.497 184.749,452.527 373.446,452.527 373.446,383.497 				"/>
				<path style="fill:#82292D;" d="M373.446,334.59h14.785c9.108,0,16.492,7.384,16.492,16.492v101.445h-31.277V334.59z"/>
				<path style="fill:#82292D;" d="M128.49,334.591v117.94H97.21v-101.45c0-9.11,7.39-16.49,16.5-16.49H128.49z"/>
				<g>
					<path style="fill:#FEA98C;" d="M132.322,345.894c0,0,7.295,3.419,20.863-2.593c3.946-1.752,8.401-4.295,13.383-7.952
						c0,0-3.681-1.923-8.06-12.075c-0.665-1.522-1.358-3.245-2.036-5.17c-5.23-14.685-26.445-10.257-26.445-10.257l-6.306,11.723
						C123.721,319.569,135.073,330.782,132.322,345.894z"/>
					<path style="fill:#FB9C88;" d="M153.184,343.301c3.946-1.752,8.401-4.295,13.383-7.952c0,0-3.681-1.923-8.06-12.075
						l-10.136-4.7C148.371,318.573,142.259,332.097,153.184,343.301z"/>
					<path style="fill:#FEA98C;" d="M130.852,309.023c6.404,2.554,12.195-4.284,17.133,8.621c0.117,0.319,0.248,0.634,0.387,0.93
						c5.22,11.987,18.785,12.09,28.104,10.87c5.073-0.656,10.504-6.215,13.563-13.091c-0.005-0.013,0.008-0.018,0.017-0.036
						c2.672-6.04,3.539-13.091,0.748-18.754c-5.973-12.148-9.976-34.833-9.976-34.833l-25.647-3.032
						C155.182,259.698,124.435,306.474,130.852,309.023z"/>
					
						<linearGradient id="SVGID_1_" gradientUnits="userSpaceOnUse" x1="478.1142" y1="273.1198" x2="488.3032" y2="273.1198" gradientTransform="matrix(-0.9386 0.3449 0.3449 0.9386 547.1402 -129.8495)">
						<stop  offset="0" style="stop-color:#FF5B75"/>
						<stop  offset="1" style="stop-color:#FEA98C"/>
					</linearGradient>
					<path style="fill:url(#SVGID_1_);" d="M187.228,288.55c0,0,3.988-1.078,5.465,3.16c1.477,4.238-3.897,8.1-8.653,4.06
						C179.285,291.731,187.228,288.55,187.228,288.55z"/>
					<path style="fill:#942D34;" d="M163.201,303.427c0,0-2.542,12.257,10.697,12.677c13.238,0.42,19.871-7.553,20.4-12.276
						c0.529-4.724-4.043-11.347-11.699-7.528c-7.655,3.819-2.877,8.606-9.609,10.828
						C166.258,309.35,164.005,305.271,163.201,303.427z"/>
					<path style="fill:#6F1F2A;" d="M174.47,289.411c0.54,1.469,1.945,2.305,3.139,1.866c1.194-0.439,1.724-1.985,1.184-3.454
						c-0.54-1.469-1.945-2.305-3.139-1.866C174.46,286.395,173.93,287.942,174.47,289.411z"/>
					<path style="fill:#6F1F2A;" d="M180.823,281.321c0,0-8.351,0.898-11.21,6.855c0,0-2.154-4.964,3.62-8.831
						C179.006,275.478,181.389,278.754,180.823,281.321z"/>
					<path style="fill:#D04444;" d="M112.853,309.794c3.584,4.329,7.753,8.157,12.461,10.7c0,0,12.952,1.023,18.697-9.391
						c0,0-8.182-5.75-7.61-10.686c0.008-0.018,0.017-0.036,0.017-0.036c0.107-0.9,0.52-1.791,1.338-2.605
						c5.762-5.725,9.726-2.909,23.105,6.14c0,0-5.775-7.993-6.458-16.876c-0.383-5.234,0.995-10.768,6.39-15.151l-39.287-5.599
						l-25.066,13.301c0,0,0.045,0.164,0.158,0.47C97.581,282.901,103.128,298.119,112.853,309.794z"/>
					<path style="fill:#B0343F;" d="M152.549,277.514c-1.21,4.596,1.605,9.133,1.854,9.525c-0.383-5.234,0.995-10.768,6.39-15.151
						l-39.287-5.599l-25.066,13.301c0,0,0.045,0.164,0.158,0.47C118.298,290.099,152.549,277.514,152.549,277.514z"/>
					<path style="fill:#6F1F2A;" d="M96.441,279.591c36.506,9.987,84.388-16.861,84.388-16.861
						c-1.25-6.319-2.901-11.676-4.841-16.217c-10.9-25.721-30.263-25.416-30.263-25.416s6.232,8.58-22.739,22.879
						c-21.397,10.549-26.771,21.069-27.581,27.904C94.822,276.623,96.441,279.591,96.441,279.591z"/>
					<path style="fill:#7B262D;" d="M95.404,271.88c24.397,3.491,52.113-11.554,72.929-20.109c3.684-1.52,6.141-3.298,7.655-5.258
						c-10.9-25.721-30.263-25.416-30.263-25.416s6.232,8.58-22.739,22.879C101.588,254.525,96.214,265.045,95.404,271.88z"/>
					<path style="fill:#B0343F;" d="M112.853,309.794c3.584,4.329,7.753,8.157,12.461,10.7c0,0,12.952,1.023,18.697-9.391
						c0,0-8.182-5.75-7.61-10.686c-0.199,0.405-2.167,4.661,1.588,9.048C137.989,309.465,129.922,320.461,112.853,309.794z"/>
					<path style="fill:#DD5853;" d="M149.005,282.359c0,0-3.215,4.313,2.165,10.688c0,0-20.075-6.079-18.076,7.569
						c1.999,13.649-13.841,7.324-17.732,4.776c-7.012-4.592-11.9-17.55-5.56-18.604
						C116.143,285.734,133.836,288.745,149.005,282.359z"/>
					<path style="fill:#EB737B;" d="M139.922,305.932c4.089,5.171,9.902,7.76,11.186,5.009c0.855-1.824,1.22-3.439,0.682-4.795
						l0.002,0l-0.015-0.04c-0.258-0.66-0.751-1.264-1.507-1.801c-1.439-1.041-0.156-2.192,0.126-3.685
						c0.17-0.893-0.017-1.896-1.34-3.071c0,0-5.75-2.296-8.099-0.799C138.603,298.234,135.846,300.756,139.922,305.932z"/>
					<path style="fill:#CB5A69;" d="M148.622,304.381c1.504,2.286,3.17,1.764,3.17,1.764l-0.015-0.04
						c-0.258-0.66-0.751-1.264-1.507-1.801c-1.439-1.041-0.156-2.192,0.126-3.685C150.395,300.619,147.122,302.108,148.622,304.381z
						"/>
					<path style="fill:#FB9C88;" d="M148.371,318.573c5.22,11.987,18.785,12.09,28.104,10.87c2.796-0.363,5.721-2.223,8.273-4.972
						c0.057-0.051,0.078-0.074,0.078-0.074c2.053-2.219,3.865-5.013,5.212-8.044c-0.064,0.114-0.114,0.223-0.173,0.35
						c-3.342,7.463-10.863,11.359-24.482,10.822c-10.571-0.419-15.078-5.783-16.553-8.154c-0.005-0.013-0.005-0.013-0.005-0.013
						C148.614,319.028,148.471,318.763,148.371,318.573z"/>
					<path style="fill:#F38481;" d="M148.371,318.573c5.22,11.987,18.785,12.09,28.104,10.87c2.796-0.363,5.721-2.223,8.273-4.972
						c-0.763,0.718-7.395,6.416-22.665,3.769c-7.811-1.372-11.519-5.218-13.253-8.869c-0.005-0.013-0.005-0.013-0.005-0.013
						C148.614,319.028,148.471,318.763,148.371,318.573z"/>
				</g>
				<path style="fill:#1F3683;" d="M321.397,360.133c0,0,2.388-7.644,13.37-7.883c10.983-0.239,8.376,2.415,12.674-0.351
					c4.298-2.766,20.991-17.064,27.437-17.31v-14.069c0,0-42.976,2.895-56.107,2.629c-13.132-0.266-37.962,14.537-37.962,14.537
					l-14.086,25.308L321.397,360.133z"/>
				<path style="fill:#35559D;" d="M261.47,380.662c0,0,26.86,1.552,41.901,0c0,0,0.179,11.52,0.895,17.071
					c0.716,5.551,20.055,14.862,26.143,24.174h13.072c0,0-12.534-39.932-13.609-49.243s-2.507-18.981-21.488-22.92
					c-18.981-3.94-48.825-4.656-48.825-4.656l-2.388,29.367L261.47,380.662z"/>
				<path style="fill:#0E1E3C;" d="M330.41,421.907c0,0-3.044,8.535,1.492,10.207c4.536,1.671,21.965,1.791,23.517,0
					c1.552-1.791-10.386-8.715-11.938-10.207C341.93,420.415,330.41,421.907,330.41,421.907z"/>
				<path style="fill:#0E1E3C;" d="M374.977,334.363c0,0,8.535,3.044,10.207-1.492c1.671-4.536,1.791-21.965,0-23.517
					c-1.791-1.552-8.715,10.386-10.207,11.938C373.485,322.844,374.977,334.363,374.977,334.363z"/>
				<path style="fill:#7A1753;" d="M259.56,345.088c0,0,10.744,10.505,1.91,35.574c0,0-48.845,7.64-82.798,4.059
					s-48.005-24.174-46.351-38.827c14.684-2.719,23.076-5.167,33.478-11.109c0,0,28.343-1.873,40.519,6.006
					C218.495,348.669,253.83,349.624,259.56,345.088z"/>
				<polygon style="fill:#C9C5C5;" points="284.152,346.862 304.446,298.77 258.88,298.77 245.713,333.628 244.658,339.119 				"/>
				<polygon style="fill:#999696;" points="287.419,339.119 244.658,339.119 244.658,346.862 284.152,346.862 				"/>
				<polygon style="fill:#FFFAFA;" points="283.217,335.396 295.612,304.978 261.509,304.978 249.791,335.396 				"/>
				<rect x="214.305" y="339.119" style="fill:#999696;" width="30.352" height="7.743"/>
				<path style="fill:#FEA98C;" d="M213.003,375.887c0,0,15.997-6.446,25.785-20.055c9.789-13.609,8.476-17.071,14.683-18.623
					c6.208-1.552,7.163-2.029,2.387-4.059c-4.775-2.029-8.953-1.91-15.28,0.836c-6.327,2.746-24.92,17.847-32.993,18.056
					c0,0-4.492,18.473-1.627,19.19C208.825,371.948,213.003,375.887,213.003,375.887z"/>
				<path style="fill:#84275F;" d="M213.003,375.887c0,0-13.743,9.55-38.745,11.221c-25.002,1.671-46.695-20.832-41.937-41.215
					c16.407-5.66,30.738-8.581,46.682,3.492c17.048,8.118,24.688-2.524,24.688-2.524S218.734,363.95,213.003,375.887z"/>
			</g>
			<path style="fill:#732428;" d="M128.49,364.091v88.44H97.21v-33.68c26.93-21.8,31.22-54.76,31.22-54.76H128.49z"/>
			<path style="fill:#732428;" d="M404.724,364.091v88.44h-31.28v-33.68c26.93-21.8,31.22-54.76,31.22-54.76H404.724z"/>
			<g>
				<g>
					<g>
						<path style="fill:#FFC530;" d="M296.556,261.481c-0.389,1.535-1.949,2.465-3.484,2.076c-1.535-0.389-2.465-1.949-2.076-3.484
							c0.389-1.535,1.949-2.465,3.484-2.076C296.016,258.385,296.945,259.945,296.556,261.481z"/>
					</g>
				</g>
				<g>
					<g>
						<path style="fill:#FFC530;" d="M332.847,208.273c-0.389,1.536-1.949,2.465-3.484,2.076c-1.535-0.389-2.465-1.949-2.076-3.485
							c0.389-1.535,1.949-2.465,3.484-2.076C332.306,205.178,333.236,206.738,332.847,208.273z"/>
					</g>
				</g>
				<g>
					<g>
						<g>
							<path style="fill:#FFC530;" d="M204.065,150.154c-0.374,0-0.708-0.251-0.807-0.621l-8.273-30.992
								c-0.062-0.234-0.02-0.483,0.115-0.683c0.135-0.201,0.35-0.332,0.59-0.362l52.277-6.493c0.249-0.031,0.499,0.051,0.681,0.225
								c0.181,0.174,0.276,0.419,0.256,0.67l-2.515,32.331c-0.031,0.396-0.337,0.716-0.731,0.765l-41.49,5.153
								C204.134,150.152,204.099,150.154,204.065,150.154z M196.848,119.038l7.837,29.361l40.089-4.98l2.382-30.629L196.848,119.038
								z"/>
						</g>
					</g>
					<g>
						<g>
							<path style="fill:#FFC530;" d="M207.5,144.461c-0.38,0-0.719-0.259-0.811-0.637l-5.135-20.989
								c-0.057-0.234-0.011-0.481,0.127-0.678c0.138-0.197,0.354-0.325,0.593-0.352l40.59-4.48c0.254-0.029,0.51,0.063,0.689,0.246
								c0.18,0.184,0.265,0.439,0.232,0.694l-2.817,21.415c-0.05,0.378-0.348,0.674-0.726,0.721l-32.639,4.054
								C207.569,144.459,207.535,144.461,207.5,144.461z M203.405,123.363l4.731,19.341l31.259-3.882l2.594-19.717L203.405,123.363z
								"/>
						</g>
					</g>
					<g>
						<g>
							<path style="fill:#FFC530;" d="M199.999,166.598c-0.225,0-0.443-0.091-0.602-0.256c-0.2-0.207-0.279-0.502-0.21-0.781
								l4.067-16.444c0.083-0.336,0.365-0.586,0.709-0.629l41.49-5.153c0.321-0.043,0.643,0.113,0.815,0.391l6.596,10.702
								c0.143,0.232,0.164,0.519,0.056,0.769c-0.107,0.25-0.33,0.432-0.597,0.488l-52.152,10.895
								C200.113,166.593,200.056,166.598,199.999,166.598z M204.739,150.077l-3.609,14.595l49.684-10.38l-5.689-9.231
								L204.739,150.077z"/>
						</g>
					</g>
					<g>
						<g>
							<path style="fill:#FFC530;" d="M209.152,153.244c-0.416,0-0.776-0.31-0.829-0.733c-0.057-0.458,0.268-0.876,0.727-0.932
								l30.564-3.796c0.45-0.059,0.876,0.268,0.933,0.727c0.057,0.458-0.268,0.876-0.727,0.932l-30.564,3.796
								C209.222,153.242,209.187,153.244,209.152,153.244z"/>
						</g>
					</g>
					<g>
						<g>
							<path style="fill:#FFC530;" d="M209.96,159.744c-0.4,0-0.754-0.288-0.824-0.696c-0.077-0.455,0.229-0.887,0.684-0.965
								l30.392-5.179c0.456-0.076,0.888,0.229,0.965,0.684c0.077,0.455-0.229,0.887-0.684,0.965l-30.392,5.179
								C210.054,159.74,210.007,159.744,209.96,159.744z"/>
						</g>
					</g>
				</g>
				<g>
					<g>
						<g>
							<path style="fill:#FFC530;" d="M88.495,90.712c0,2.178-1.765,3.943-3.943,3.943c-2.178,0-3.943-1.765-3.943-3.943
								c0-2.178,1.765-3.943,3.943-3.943C86.73,86.769,88.495,88.535,88.495,90.712z"/>
						</g>
					</g>
					<g>
						<g>
							<path style="fill:#FFC530;" d="M94.329,239.295c0,1.584-1.284,2.868-2.868,2.868s-2.868-1.284-2.868-2.868
								s1.284-2.868,2.868-2.868S94.329,237.711,94.329,239.295z"/>
						</g>
					</g>
					<g>
						<g>
							<path style="fill:#FFC530;" d="M85.582,233.867c-0.076-0.069-1.898-1.744-4.587-4.972l2.02-1.683
								c2.562,3.076,4.324,4.7,4.341,4.716L85.582,233.867z M76.924,223.601c-1.274-1.79-2.508-3.662-3.671-5.566l2.243-1.369
								c1.13,1.85,2.331,3.671,3.569,5.412L76.924,223.601z M69.974,212.236c-1.022-1.959-1.991-3.979-2.881-6.004l2.407-1.058
								c0.866,1.971,1.81,3.938,2.805,5.846L69.974,212.236z M64.621,200.048c-0.752-2.082-1.443-4.214-2.052-6.336l2.527-0.725
								c0.592,2.066,1.264,4.141,1.997,6.168L64.621,200.048z M60.949,187.255c-0.467-2.163-0.865-4.367-1.184-6.551l2.6-0.38
								c0.311,2.126,0.699,4.272,1.153,6.377L60.949,187.255z M59.017,174.092c-0.176-2.191-0.282-4.427-0.316-6.645l2.629-0.041
								c0.033,2.162,0.137,4.341,0.307,6.477L59.017,174.092z M61.435,160.92l-2.626-0.125c0.104-2.193,0.277-4.423,0.515-6.629
								l2.613,0.282C61.705,156.602,61.536,158.78,61.435,160.92z M62.822,148.016l-2.593-0.433c0.358-2.15,0.787-4.343,1.273-6.518
								l2.566,0.574C63.592,143.767,63.173,145.912,62.822,148.016z M65.654,135.333l-2.532-0.706
								c0.588-2.107,1.241-4.242,1.941-6.345l2.494,0.831C66.87,131.175,66.23,133.268,65.654,135.333z M69.754,122.984
								l-2.454-0.943c0.78-2.028,1.625-4.091,2.512-6.132l2.41,1.047C71.35,118.963,70.52,120.991,69.754,122.984z M74.941,111.034
								l-2.367-1.145c0.95-1.964,1.957-3.951,2.994-5.903l2.322,1.232C76.869,107.142,75.877,109.099,74.941,111.034z
								 M81.051,99.511l-2.277-1.313c0.303-0.525,0.61-1.052,0.921-1.581l2.265,1.333C81.653,98.473,81.35,98.992,81.051,99.511z"/>
						</g>
					</g>
					<g>
						<g>
							<g>
								<path style="fill:#FFC530;" d="M92.625,79.046c-0.097,0-0.194-0.011-0.291-0.033c-10.351-2.354-18.485-2.848-23.486-2.848
									c-2.965,0-4.625,0.18-4.641,0.182c-0.372,0.044-0.74-0.077-1.019-0.324c-0.278-0.247-0.439-0.601-0.441-0.973l-0.246-34.999
									c-0.004-0.575,0.367-1.086,0.914-1.261c1.949-0.622,3.729-1.108,5.443-1.485c0.348-0.076,0.715-0.009,1.012,0.191
									c0.298,0.198,0.501,0.51,0.564,0.862c1.896,10.624-0.182,24.609-1.06,29.634c1.918-0.287,3.772-0.431,5.533-0.431
									c14.343,0,18.868,9.528,18.912,9.625c0.208,0.454,0.141,0.988-0.175,1.376C93.392,78.872,93.015,79.046,92.625,79.046z
									 M68.848,73.537c4.585,0,11.729,0.403,20.743,2.203c-2.216-2.377-6.674-5.551-14.683-5.551
									c-2.165,0-4.493,0.237-6.919,0.707c-0.429,0.081-0.875-0.055-1.183-0.365c-0.309-0.311-0.442-0.756-0.355-1.186
									c0.035-0.173,3.354-16.844,1.615-29.154c-0.941,0.234-1.911,0.505-2.929,0.815l0.229,32.619
									C66.193,73.58,67.363,73.537,68.848,73.537z"/>
							</g>
						</g>
						<g>
							<g>
								<path style="fill:#FFC530;" d="M119.63,88.258c-0.184,0-0.369-0.038-0.546-0.119c-8.766-4.009-17.762-7.078-26.737-9.123
									c-0.49-0.112-0.874-0.494-0.988-0.984c-0.114-0.49,0.062-1.002,0.453-1.319c0.036-0.03,3.698-2.937,9.962-2.937
									c1.497,0,3.037,0.167,4.577,0.497c3.767,0.807,7.601,2.587,11.419,5.301c1.561-5.115,6.392-19.593,13.4-28.103
									c0.425-0.514,1.169-0.63,1.728-0.268c3.16,2.043,4.918,3.444,4.993,3.503c0.502,0.401,0.639,1.106,0.326,1.667
									l-17.438,31.212C120.538,88.013,120.092,88.258,119.63,88.258z M96.406,77.295c7.615,1.953,15.219,4.621,22.666,7.954
									l16.292-29.161c-0.642-0.474-1.621-1.174-2.897-2.023c-7.671,10.032-12.651,27.855-12.703,28.04
									c-0.117,0.423-0.436,0.76-0.853,0.898c-0.419,0.137-0.875,0.059-1.221-0.21c-4.008-3.116-8.01-5.117-11.892-5.948
									c-1.359-0.291-2.714-0.439-4.026-0.439C99.584,76.405,97.773,76.816,96.406,77.295z"/>
							</g>
						</g>
						<g>
							<g>
								<path style="fill:#FFC530;" d="M118.498,83.069c-0.288,0-0.573-0.095-0.807-0.277c-4.008-3.116-8.01-5.117-11.892-5.948
									c-1.359-0.291-2.714-0.439-4.026-0.439c-5.208,0-8.279,2.328-8.309,2.352c-0.219,0.174-0.488,0.274-0.763,0.287
									c-0.552,0.029-1.044-0.271-1.271-0.766c-0.153-0.32-3.994-8.09-16.522-8.09c-2.165,0-4.493,0.237-6.919,0.707
									c-0.429,0.081-0.875-0.055-1.183-0.365c-0.309-0.311-0.442-0.756-0.355-1.186c0.036-0.18,3.609-18.124,1.396-30.526
									c-0.612-3.428-1.607-6.107-2.96-7.963c-0.248-0.341-0.318-0.782-0.186-1.183c0.132-0.402,0.447-0.715,0.85-0.843
									c0.279-0.089,6.923-2.176,14.853-2.176c10.177,0,17.756,3.494,22.021,10.125c3.151-1.847,6.629-2.782,10.36-2.782
									c13.395,0,25.597,11.872,26.111,12.377c0.3,0.297,0.44,0.719,0.376,1.135c-0.064,0.417-0.324,0.778-0.7,0.971
									c-1.758,0.901-3.565,2.47-5.374,4.663c-8.083,9.816-13.38,28.772-13.433,28.962c-0.117,0.423-0.436,0.76-0.853,0.898
									C118.776,83.047,118.636,83.069,118.498,83.069z M101.773,73.776c1.497,0,3.037,0.167,4.577,0.497
									c3.767,0.807,7.601,2.588,11.419,5.301c1.561-5.115,6.392-19.593,13.4-28.103c1.518-1.842,3.063-3.307,4.612-4.375
									c-3.382-2.935-13.036-10.471-22.997-10.471c-3.666,0-7.051,1.033-10.061,3.071c-0.305,0.207-0.682,0.274-1.043,0.19
									c-0.359-0.086-0.665-0.319-0.843-0.641c-3.663-6.611-10.538-9.962-20.434-9.962c-5.26,0-10.002,0.993-12.402,1.597
									c1.086,1.993,1.903,4.499,2.434,7.478c1.896,10.624-0.182,24.609-1.06,29.634c1.918-0.287,3.772-0.431,5.533-0.431
									c11.136,0,16.352,5.742,18.15,8.356C94.629,75.046,97.632,73.776,101.773,73.776z"/>
							</g>
						</g>
						<g>
							<g>
								<path style="fill:#FFC530;" d="M92.627,79.046c-0.101,0-0.204-0.012-0.307-0.036c-0.706-0.169-1.141-0.879-0.972-1.585
									l9.361-39.124c0.169-0.705,0.877-1.14,1.584-0.972c0.706,0.169,1.141,0.879,0.972,1.584l-9.361,39.124
									C93.759,78.641,93.22,79.046,92.627,79.046z"/>
							</g>
						</g>
						<g>
							<g>
								<path style="fill:#FFC530;" d="M94.971,40.749c-0.202,0-0.408-0.047-0.601-0.146c-9.164-4.719-19.216-3.191-19.316-3.174
									c-0.719,0.113-1.391-0.374-1.505-1.09c-0.115-0.716,0.372-1.39,1.088-1.505c0.445-0.071,10.983-1.693,20.937,3.432
									c0.646,0.332,0.9,1.125,0.567,1.771C95.907,40.489,95.448,40.749,94.971,40.749z"/>
							</g>
						</g>
						<g>
							<g>
								<path style="fill:#FFC530;" d="M92.929,50.28c-0.205,0-0.413-0.048-0.607-0.15c-9.529-4.976-17.015-2.899-17.09-2.877
									c-0.697,0.201-1.426-0.197-1.629-0.892c-0.204-0.695,0.191-1.423,0.886-1.629c0.342-0.103,8.524-2.43,19.05,3.069
									c0.644,0.336,0.893,1.13,0.556,1.773C93.861,50.023,93.404,50.28,92.929,50.28z"/>
							</g>
						</g>
						<g>
							<g>
								<path style="fill:#FFC530;" d="M90.146,59.093c-0.283,0-0.568-0.09-0.808-0.279c-5.961-4.654-14.498-3.11-14.582-3.094
									c-0.717,0.133-1.4-0.334-1.536-1.046c-0.135-0.712,0.331-1.4,1.044-1.536c0.396-0.076,9.776-1.796,16.692,3.604
									c0.573,0.447,0.674,1.273,0.227,1.844C90.923,58.92,90.537,59.093,90.146,59.093z"/>
							</g>
						</g>
						<g>
							<g>
								<path style="fill:#FFC530;" d="M88.288,67.768c-0.277,0-0.556-0.087-0.794-0.268c-5.408-4.111-13.142-2.816-13.22-2.802
									c-0.717,0.127-1.396-0.352-1.522-1.066c-0.126-0.714,0.349-1.395,1.063-1.522c0.359-0.065,8.93-1.521,15.268,3.299
									c0.578,0.439,0.69,1.264,0.251,1.841C89.076,67.589,88.684,67.768,88.288,67.768z"/>
							</g>
						</g>
						<g>
							<g>
								<path style="fill:#FFC530;" d="M127.242,48.372c-0.265,0-0.532-0.079-0.764-0.246c-0.083-0.059-8.426-5.912-18.698-5.794
									c-0.674,0.042-1.321-0.572-1.33-1.298c-0.009-0.726,0.572-1.321,1.298-1.33c11.264-0.127,19.898,6.026,20.263,6.288
									c0.589,0.424,0.723,1.244,0.3,1.833C128.055,48.182,127.651,48.372,127.242,48.372z"/>
							</g>
						</g>
						<g>
							<g>
								<path style="fill:#FFC530;" d="M122.823,57.187c-0.321,0-0.642-0.116-0.895-0.352c-0.066-0.061-5.832-5.247-16.574-5.063
									c-0.719,0.001-1.325-0.565-1.338-1.291c-0.013-0.726,0.565-1.324,1.291-1.338c11.876-0.21,18.152,5.525,18.413,5.769
									c0.531,0.495,0.559,1.327,0.063,1.857C123.524,57.047,123.174,57.187,122.823,57.187z"/>
							</g>
						</g>
						<g>
							<g>
								<path style="fill:#FFC530;" d="M119.364,64.891c-0.277,0-0.557-0.087-0.795-0.268c-0.069-0.052-7.015-5.245-14.428-3.75
									c-0.713,0.145-1.405-0.316-1.549-1.028c-0.144-0.712,0.316-1.405,1.027-1.549c8.607-1.737,16.223,3.992,16.543,4.237
									c0.576,0.44,0.686,1.264,0.246,1.84C120.152,64.712,119.761,64.891,119.364,64.891z"/>
							</g>
						</g>
						<g>
							<g>
								<path style="fill:#FFC530;" d="M115.77,73.126c-0.271,0-0.545-0.084-0.781-0.258c-0.063-0.048-6.406-4.662-13.079-3.401
									c-0.709,0.141-1.4-0.334-1.535-1.047c-0.135-0.713,0.334-1.4,1.047-1.535c7.821-1.479,14.839,3.654,15.133,3.873
									c0.582,0.433,0.703,1.255,0.271,1.837C116.57,72.941,116.173,73.126,115.77,73.126z"/>
							</g>
						</g>
					</g>
				</g>
				<g>
					<g>
						<g>
							<path style="fill:#FFC530;" d="M344.642,212.247c-0.115-0.029-0.225-0.08-0.326-0.153l-23.022-16.701
								c-0.401-0.29-0.514-0.839-0.26-1.263l19.134-32.073c0.267-0.448,0.848-0.598,1.295-0.34l31.935,18.253
								c0.252,0.144,0.426,0.396,0.47,0.683c0.045,0.288-0.044,0.58-0.241,0.794l-28.047,30.521
								C345.336,212.233,344.973,212.331,344.642,212.247z M323.124,194.359l21.625,15.688l26.66-29.012l-30.08-17.193
								L323.124,194.359z"/>
						</g>
					</g>
					<g>
						<g>
							<path style="fill:#FFC530;" d="M358.265,190.726c-0.058-0.015-0.114-0.04-0.164-0.077l-20.217-14.666
								c-0.19-0.138-0.252-0.395-0.144-0.605l4.637-9.038c0.061-0.118,0.168-0.206,0.296-0.242c0.128-0.036,0.265-0.019,0.379,0.053
								l22.667,13.934c0.113,0.07,0.192,0.184,0.218,0.314c0.026,0.131-0.004,0.266-0.081,0.374l-7.087,9.77
								c-0.075,0.103-0.187,0.172-0.312,0.191C358.393,190.745,358.327,190.741,358.265,190.726z M338.777,175.45l19.499,14.145
								l6.504-8.965l-21.787-13.393L338.777,175.45z"/>
						</g>
					</g>
					<g>
						<g>
							<polygon style="fill:#FFC530;" points="336.109,178.533 334.373,182.146 338.049,184.813 340.365,181.621 							"/>
						</g>
					</g>
					<g>
						<g>
							<polygon style="fill:#FFC530;" points="343.847,184.147 341.531,187.339 345.304,190.076 348.006,187.164 							"/>
						</g>
					</g>
					<g>
						<g>
							
								<rect x="350.245" y="190.205" transform="matrix(0.5872 -0.8095 0.8095 0.5872 -10.5452 364.6324)" style="fill:#FFC530;" width="3.943" height="4.9"/>
						</g>
					</g>
					<g>
						<g>
							<polygon style="fill:#FFC530;" points="347.308,194.334 340.691,204.372 344.173,206.898 351.709,197.527 							"/>
						</g>
					</g>
					<g>
						<g>
							
								<rect x="338.812" y="189.884" transform="matrix(0.5872 -0.8094 0.8094 0.5872 -14.8381 355.2135)" style="fill:#FFC530;" width="4.063" height="4.541"/>
						</g>
					</g>
					<g>
						<g>
							<polygon style="fill:#FFC530;" points="339.418,197.986 336.822,201.565 333.146,198.898 336.274,195.705 							"/>
						</g>
					</g>
					<g>
						<g>
							<polygon style="fill:#FFC530;" points="329.839,196.13 326.695,193.849 329.902,190.344 332.949,192.555 							"/>
						</g>
					</g>
					<g>
						<g>
							<polygon style="fill:#FFC530;" points="331.631,188.572 334.862,190.325 336.299,186.717 333.911,184.616 							"/>
						</g>
					</g>
				</g>
				<g>
					<g>
						<path style="fill:#FFC530;" d="M293.989,261.708l-0.427-1.864c0.017-0.004,1.732-0.405,4.362-1.529l0.751,1.758
							C295.872,261.272,294.064,261.691,293.989,261.708z M303.056,257.914l-0.934-1.668c1.354-0.758,2.689-1.597,3.969-2.492
							l1.096,1.567C305.856,256.252,304.466,257.125,303.056,257.914z M311.041,252.339l-1.242-1.453
							c1.182-1.011,2.329-2.092,3.411-3.213l1.376,1.327C313.462,250.165,312.269,251.288,311.041,252.339z M317.795,245.34
							l-1.495-1.193c0.964-1.208,1.889-2.485,2.75-3.797l1.599,1.05C319.754,242.761,318.794,244.086,317.795,245.34z
							 M323.137,237.228l-1.683-0.907c0.733-1.361,1.423-2.782,2.052-4.224l1.752,0.764
							C324.609,234.351,323.895,235.821,323.137,237.228z M327.022,228.345l-1.806-0.627c0.507-1.463,0.973-2.977,1.382-4.499
							l1.847,0.497C328.023,225.282,327.545,226.84,327.022,228.345z M327.674,218.627c0.304-1.511,0.569-3.077,0.788-4.656
							l1.894,0.263c-0.225,1.617-0.496,3.221-0.806,4.769L327.674,218.627z M328.982,209.271c0.049-0.581,0.092-1.169,0.13-1.763
							l1.909,0.122c-0.039,0.607-0.083,1.208-0.134,1.802L328.982,209.271z"/>
					</g>
				</g>
				<g>
					<g>
						<g>
							<path style="fill:#FFC530;" d="M185.369,247.11c1.525,0.429,3.109-0.46,3.537-1.985c0.429-1.525-0.46-3.109-1.985-3.537
								c-1.525-0.429-3.108,0.46-3.537,1.985C182.955,245.098,183.844,246.681,185.369,247.11z"/>
						</g>
					</g>
					<g>
						<g>
							<path style="fill:#FFC530;" d="M255.228,193.531c1.525,0.429,3.109-0.46,3.537-1.985c0.429-1.525-0.46-3.109-1.985-3.537
								c-1.525-0.429-3.109,0.46-3.537,1.985C252.815,191.519,253.703,193.102,255.228,193.531z"/>
						</g>
					</g>
					<g>
						<g>
							<g>
								<path style="fill:#FFC530;" d="M279.584,169.923c-2.137-0.91-4.041-2.349-5.507-4.161c-0.695-0.862-1.288-1.8-1.763-2.788
									c-3.431-7.124-0.426-15.711,6.698-19.142c7.124-3.431,15.711-0.426,19.142,6.698c3.431,7.125,0.426,15.711-6.698,19.142
									C287.716,171.473,283.387,171.564,279.584,169.923z M274.037,162.144c0.412,0.856,0.927,1.67,1.528,2.416
									c1.269,1.569,2.918,2.815,4.773,3.605c3.299,1.423,7.049,1.344,10.289-0.216c6.174-2.973,8.778-10.416,5.805-16.59
									s-10.415-8.778-16.59-5.805C273.667,148.528,271.063,155.97,274.037,162.144z"/>
							</g>
						</g>
						<g>
							<g>
								<path style="fill:#FFC530;" d="M257.8,185.814l-0.101-0.079c-1.402-1.133-2.185-2.817-2.15-4.621
									c0.036-1.801,0.886-3.451,2.331-4.527l17.108-12.74l0.577,0.714c1.269,1.569,2.918,2.815,4.769,3.603l1.278,0.544
									l-16.028,16.605c-0.479,0.498-1.036,0.902-1.655,1.2C261.929,187.475,259.518,187.195,257.8,185.814z M274.68,166.459
									l-15.657,11.66c-0.969,0.721-1.538,1.828-1.562,3.034c-0.024,1.208,0.501,2.336,1.424,3.082l0.099,0.077
									c1.52,1.223,3.856,1.095,5.222-0.327l14.149-14.656C276.986,168.581,275.739,167.609,274.68,166.459z"/>
							</g>
						</g>
						<g>
							<g>
								<path style="fill:#FFC530;" d="M257.8,185.814l-0.101-0.079c-1.402-1.133-2.185-2.817-2.15-4.621
									c0.036-1.801,0.886-3.451,2.331-4.527l6.44-4.804l0.418,1.256c0.839,2.518,2.339,4.95,4.461,7.228l0.618,0.664l-4.233,4.382
									c-0.479,0.498-1.036,0.902-1.655,1.2C261.929,187.475,259.518,187.195,257.8,185.814z M263.381,174.869l-4.358,3.25
									c-0.969,0.722-1.538,1.828-1.562,3.034c-0.024,1.208,0.501,2.336,1.424,3.082l0.099,0.077
									c1.52,1.223,3.856,1.095,5.222-0.327l2.985-3.089C265.523,178.98,264.246,176.961,263.381,174.869z"/>
							</g>
						</g>
						<g>
							<g>
								<path style="fill:#FFC530;" d="M290.567,149.409c0.152-0.073,0.287-0.188,0.386-0.339c0.288-0.443,0.163-1.035-0.28-1.323
									c-5.963-3.879-11.841-0.083-12.087,0.08c-0.44,0.292-0.561,0.885-0.27,1.325c0.292,0.441,0.879,0.563,1.323,0.272l0,0
									c0.204-0.135,5.097-3.26,9.991-0.074C289.921,149.538,290.276,149.549,290.567,149.409z"/>
							</g>
						</g>
					</g>
					<g>
						<g>
							<path style="fill:#FFC530;" d="M256.887,191.151l-1.826-0.569l0.04-0.121l1.809,0.617L256.887,191.151z M253.574,200.204
								l-1.766-0.735c0.593-1.424,1.171-2.907,1.721-4.409l1.796,0.656C254.766,197.245,254.177,198.754,253.574,200.204z
								 M249.444,208.913l-1.683-0.907c0.729-1.354,1.445-2.773,2.129-4.217l1.729,0.819
								C250.92,206.082,250.189,207.53,249.444,208.913z M244.399,217.141l-1.568-1.094c0.878-1.258,1.747-2.587,2.581-3.948
								l1.63,0.999C246.188,214.492,245.299,215.852,244.399,217.141z M238.37,224.695l-1.412-1.29
								c1.048-1.146,2.076-2.351,3.056-3.581l1.496,1.192C240.503,222.279,239.446,223.517,238.37,224.695z M231.342,231.351
								l-1.209-1.481c1.203-0.982,2.391-2.028,3.53-3.107l1.315,1.388C233.805,229.262,232.582,230.339,231.342,231.351z
								 M223.391,236.887l-0.968-1.648c1.344-0.79,2.676-1.643,3.959-2.536l1.093,1.569
								C226.152,235.192,224.777,236.072,223.391,236.887z M214.673,241.132l-0.702-1.779c1.451-0.572,2.9-1.209,4.308-1.893
								l0.835,1.72C217.663,239.885,216.169,240.542,214.673,241.132z M205.402,243.992l-0.424-1.864
								c1.529-0.348,3.06-0.758,4.549-1.217l0.565,1.827C208.556,243.212,206.978,243.634,205.402,243.992z M195.801,245.43
								l-0.139-1.907c1.555-0.114,3.131-0.29,4.683-0.523l0.285,1.891C199.029,245.132,197.404,245.313,195.801,245.43z
								 M186.004,245.295l0.281-1.891c0.018,0.003,1.763,0.255,4.667,0.278l-0.016,1.912
								C187.886,245.57,186.08,245.306,186.004,245.295z"/>
						</g>
					</g>
				</g>
				<g>
					<g>
						<g>
							<path style="fill:#FFC530;" d="M147.27,206.898c0.351,1.545-0.617,3.081-2.161,3.432c-1.545,0.351-3.081-0.617-3.432-2.161
								c-0.351-1.544,0.617-3.081,2.161-3.432C145.382,204.385,146.919,205.353,147.27,206.898z"/>
						</g>
					</g>
					<g>
						<g>
							<path style="fill:#FFC530;" d="M152.617,139.553c0.351,1.545-0.617,3.081-2.161,3.432c-1.545,0.351-3.081-0.617-3.432-2.161
								c-0.351-1.545,0.617-3.081,2.161-3.432C150.729,137.041,152.266,138.008,152.617,139.553z"/>
						</g>
					</g>
					<g>
						<path style="fill:#FFC530;" d="M143.091,207.914c-0.02-0.071-0.487-1.778-1.051-4.79l2.818-0.528
							c0.54,2.882,0.993,4.541,0.998,4.557L143.091,207.914z M141.26,198.339c-0.221-1.579-0.414-3.196-0.573-4.806l2.854-0.281
							c0.155,1.571,0.343,3.149,0.559,4.689L141.26,198.339z M140.309,188.709c-0.094-1.605-0.156-3.232-0.185-4.835l2.867-0.052
							c0.029,1.565,0.09,3.153,0.182,4.72L140.309,188.709z M142.999,179.099l-2.867-0.063c0.035-1.61,0.104-3.236,0.205-4.835
							l2.862,0.18C143.101,175.941,143.033,177.529,142.999,179.099z M143.598,169.68l-2.852-0.303
							c0.172-1.61,0.38-3.227,0.618-4.803l2.835,0.428C143.967,166.538,143.765,168.112,143.598,169.68z M145.01,160.358
							l-2.813-0.558c0.315-1.591,0.67-3.183,1.055-4.732l2.783,0.692C145.661,157.264,145.317,158.811,145.01,160.358z
							 M147.282,151.218l-2.747-0.827c0.467-1.55,0.977-3.1,1.516-4.609l2.701,0.964
							C148.229,148.21,147.735,149.714,147.282,151.218z M150.45,142.359l-2.647-1.104c0.228-0.549,0.464-1.097,0.705-1.645
							l2.624,1.157C150.899,141.297,150.672,141.828,150.45,142.359z"/>
					</g>
				</g>
				<g>
					<g>
						<g>
							<path style="fill:#FFC530;" d="M155.074,40.771c-1.453,0.631-3.142-0.036-3.773-1.488c-0.631-1.453,0.036-3.142,1.488-3.773
								c1.453-0.631,3.142,0.036,3.773,1.489C157.193,38.451,156.527,40.14,155.074,40.771z"/>
						</g>
					</g>
					<g>
						<g>
							<path style="fill:#FFC530;" d="M222.245,33.562c-1.453,0.631-3.142-0.036-3.773-1.488c-0.631-1.453,0.036-3.142,1.489-3.773
								c1.453-0.631,3.142,0.036,3.773,1.489C224.365,31.242,223.698,32.931,222.245,33.562z"/>
						</g>
					</g>
					<g>
						<path style="fill:#FFC530;" d="M154.562,39.428l-1.261-2.576c0.067-0.033,1.659-0.809,4.519-1.922l1.041,2.673
							C156.125,38.667,154.577,39.421,154.562,39.428z M163.297,35.995l-0.917-2.718c1.507-0.508,3.061-0.997,4.62-1.452
							l0.804,2.753C166.283,35.022,164.767,35.499,163.297,35.995z M172.365,33.344l-0.694-2.783
							c1.561-0.389,3.148-0.751,4.717-1.077l0.583,2.808C175.438,32.61,173.889,32.964,172.365,33.344z M220.779,32.328
							c-0.562-0.13-1.123-0.255-1.682-0.374l0.597-2.806c0.577,0.123,1.156,0.252,1.735,0.387L220.779,32.328z M181.614,31.426
							l-0.469-2.83c1.592-0.264,3.204-0.497,4.791-0.692l0.351,2.847C184.74,30.942,183.167,31.169,181.614,31.426z M214.47,31.097
							c-1.531-0.243-3.1-0.451-4.664-0.618l0.304-2.852c1.612,0.172,3.23,0.386,4.809,0.637L214.47,31.097z M190.983,30.272
							l-0.229-2.859c1.611-0.129,3.238-0.224,4.835-0.281l0.104,2.866C194.138,30.054,192.553,30.147,190.983,30.272z
							 M205.113,30.094c-1.548-0.089-3.132-0.142-4.707-0.158l0.028-2.868c1.621,0.016,3.25,0.07,4.844,0.162L205.113,30.094z"/>
					</g>
				</g>
				<g>
					<g>
						<g>
							<path style="fill:#FFC530;" d="M322.773,47.716c-1.582,0.086-2.933-1.127-3.019-2.708c-0.086-1.582,1.127-2.933,2.709-3.019
								c1.582-0.086,2.933,1.127,3.019,2.709C325.567,46.279,324.354,47.631,322.773,47.716z"/>
						</g>
					</g>
					<g>
						<g>
							<path style="fill:#FFC530;" d="M388.253,64.335c-1.582,0.086-2.933-1.127-3.019-2.709c-0.086-1.582,1.127-2.933,2.709-3.019
								c1.582-0.086,2.933,1.127,3.019,2.708C391.048,62.898,389.835,64.25,388.253,64.335z"/>
						</g>
					</g>
					<g>
						<path style="fill:#FFC530;" d="M387.307,62.668c-0.483-0.32-0.967-0.633-1.452-0.94l1.535-2.423
							c0.501,0.317,1.001,0.641,1.5,0.971L387.307,62.668z M381.817,59.314c-1.363-0.766-2.763-1.507-4.159-2.203l1.277-2.567
							c1.441,0.716,2.883,1.48,4.288,2.27L381.817,59.314z M373.39,55.118c-1.424-0.623-2.89-1.224-4.361-1.786l1.025-2.679
							c1.512,0.578,3.021,1.196,4.486,1.838L373.39,55.118z M364.588,51.75c-1.475-0.488-2.992-0.953-4.509-1.381l0.779-2.761
							c1.558,0.44,3.117,0.917,4.633,1.419L364.588,51.75z M355.51,49.183c-1.516-0.359-3.069-0.693-4.617-0.992l0.545-2.816
							c1.586,0.307,3.178,0.649,4.733,1.018L355.51,49.183z M346.239,47.386c-1.552-0.235-3.128-0.443-4.684-0.616l0.318-2.85
							c1.594,0.178,3.208,0.39,4.796,0.631L346.239,47.386z M336.849,46.34c-1.582-0.112-3.169-0.193-4.717-0.239l0.086-2.867
							c1.588,0.048,3.215,0.131,4.835,0.246L336.849,46.34z M322.76,46.28l-0.286-2.854c0.073-0.007,1.833-0.181,4.895-0.229
							l0.045,2.868C324.486,46.111,322.777,46.278,322.76,46.28z"/>
					</g>
				</g>
				<g>
					<g>
						<g>
							<path style="fill:#FFC530;" d="M428.321,104.749c-0.599-1.466,0.104-3.141,1.57-3.74c1.466-0.599,3.141,0.104,3.74,1.57
								c0.599,1.466-0.104,3.141-1.57,3.74C430.594,106.918,428.92,106.215,428.321,104.749z"/>
						</g>
					</g>
					<g>
						<g>
							<path style="fill:#FFC530;" d="M434.071,172.061c-0.599-1.466,0.104-3.141,1.57-3.74c1.466-0.599,3.141,0.104,3.74,1.57
								c0.599,1.466-0.104,3.141-1.57,3.74C436.344,174.23,434.67,173.527,434.071,172.061z"/>
						</g>
					</g>
					<g>
						<path style="fill:#FFC530;" d="M438.115,171.33l-2.778-0.709c0.142-0.559,0.279-1.118,0.411-1.675l2.791,0.658
							C438.403,170.179,438.262,170.754,438.115,171.33z M439.525,164.851l-2.821-0.512c0.274-1.518,0.517-3.083,0.72-4.651
							l2.844,0.367C440.059,161.672,439.809,163.285,439.525,164.851z M440.768,155.232l-2.859-0.226
							c0.123-1.559,0.21-3.141,0.259-4.704l2.866,0.091C440.985,152,440.895,153.628,440.768,155.232z M438.21,145.59
							c-0.022-1.559-0.08-3.145-0.172-4.714l2.862-0.168c0.094,1.611,0.154,3.24,0.177,4.841L438.21,145.59z M437.662,136.172
							c-0.158-1.551-0.351-3.128-0.574-4.688l2.838-0.407c0.23,1.599,0.428,3.215,0.589,4.804L437.662,136.172z M436.321,126.823
							c-0.286-1.542-0.606-3.099-0.951-4.628l2.797-0.633c0.354,1.566,0.682,3.161,0.974,4.739L436.321,126.823z M434.234,117.608
							c-0.407-1.519-0.85-3.045-1.318-4.535l2.737-0.858c0.479,1.528,0.934,3.093,1.352,4.65L434.234,117.608z M431.406,108.603
							c-1.006-2.757-1.725-4.322-1.732-4.337l2.603-1.204c0.031,0.067,0.772,1.676,1.823,4.559L431.406,108.603z"/>
					</g>
				</g>
				<g>
					<g>
						<g>
							<path style="fill:#FFC530;" d="M279.674,71.093c-0.599-1.466,0.104-3.141,1.57-3.74c1.466-0.599,3.141,0.104,3.74,1.57
								c0.599,1.466-0.104,3.141-1.57,3.74C281.948,73.262,280.274,72.559,279.674,71.093z"/>
						</g>
					</g>
					<g>
						<g>
							<path style="fill:#FFC530;" d="M285.424,138.405c-0.599-1.466,0.104-3.141,1.57-3.74c1.466-0.599,3.141,0.104,3.74,1.57
								c0.599,1.466-0.104,3.141-1.57,3.74C287.698,140.574,286.023,139.871,285.424,138.405z"/>
						</g>
					</g>
					<g>
						<path style="fill:#FFC530;" d="M289.468,137.674l-2.778-0.709c0.142-0.559,0.279-1.118,0.411-1.675l2.792,0.658
							C289.757,136.523,289.616,137.099,289.468,137.674z M290.879,131.195l-2.821-0.512c0.275-1.518,0.517-3.083,0.72-4.651
							l2.844,0.367C291.413,128.016,291.163,129.63,290.879,131.195z M292.122,121.576l-2.859-0.226
							c0.123-1.559,0.21-3.141,0.26-4.703l2.866,0.09C292.338,118.344,292.249,119.973,292.122,121.576z M289.564,111.935
							c-0.022-1.559-0.08-3.145-0.172-4.714l2.862-0.168c0.094,1.611,0.154,3.24,0.177,4.841L289.564,111.935z M289.016,102.516
							c-0.158-1.551-0.351-3.128-0.574-4.688l2.838-0.407c0.23,1.599,0.428,3.215,0.589,4.804L289.016,102.516z M287.675,93.168
							c-0.286-1.542-0.606-3.099-0.951-4.628l2.797-0.633c0.354,1.566,0.681,3.161,0.974,4.739L287.675,93.168z M285.587,83.952
							c-0.407-1.519-0.85-3.045-1.318-4.535l2.737-0.858c0.479,1.528,0.934,3.093,1.352,4.65L285.587,83.952z M282.759,74.947
							c-1.005-2.757-1.725-4.322-1.732-4.337l2.603-1.204c0.031,0.067,0.772,1.676,1.823,4.559L282.759,74.947z"/>
					</g>
				</g>
				<g>
					<g>
						<g>
							<path style="fill:#FFC530;" d="M235.151,50.479c0.889-1.311,2.672-1.653,3.983-0.765c1.311,0.889,1.653,2.672,0.765,3.983
								c-0.889,1.311-2.672,1.653-3.983,0.764C234.605,53.573,234.263,51.79,235.151,50.479z"/>
						</g>
					</g>
					<g>
						<g>
							<path style="fill:#FFC530;" d="M182.297,92.554c0.889-1.311,2.672-1.653,3.983-0.765c1.311,0.889,1.653,2.672,0.765,3.983
								c-0.889,1.311-2.672,1.654-3.983,0.765C181.75,95.648,181.408,93.865,182.297,92.554z"/>
						</g>
					</g>
					<g>
						<path style="fill:#FFC530;" d="M185.145,95.516l-0.949-2.707c0.536-0.188,1.068-0.38,1.597-0.576l0.998,2.689
							C186.247,95.124,185.698,95.322,185.145,95.516z M191.296,93.113l-1.137-2.633c1.422-0.614,2.859-1.279,4.271-1.976
							l1.27,2.571C194.245,91.794,192.762,92.48,191.296,93.113z M199.995,88.82l-1.395-2.506c1.358-0.756,2.725-1.56,4.062-2.389
							l1.512,2.437C202.799,87.215,201.392,88.043,199.995,88.82z M208.233,83.712l-1.622-2.366
							c1.279-0.877,2.567-1.803,3.831-2.754l1.724,2.292C210.869,81.86,209.546,82.811,208.233,83.712z M215.972,77.888
							l-1.821-2.215c1.206-0.991,2.412-2.025,3.585-3.074l1.911,2.138C218.445,75.811,217.209,76.872,215.972,77.888z
							 M223.192,71.438l-1.997-2.059c1.127-1.093,2.246-2.223,3.328-3.357L226.599,68C225.492,69.163,224.345,70.319,223.192,71.438
							z M229.868,64.429l-2.155-1.893c1.047-1.191,2.072-2.406,3.048-3.612l2.229,1.804
							C231.991,61.964,230.94,63.209,229.868,64.429z M235.958,56.887l-2.311-1.699c1.742-2.368,2.647-3.836,2.656-3.85l2.445,1.5
							C238.709,52.901,237.779,54.412,235.958,56.887z"/>
					</g>
				</g>
				<g>
					<path style="fill:#FFC530;" d="M139.789,128.25c-0.027,0-0.053-0.001-0.08-0.002c-0.625-0.035-1.154-0.47-1.31-1.076
						l-4.131-16.13c-0.197-0.767,0.266-1.548,1.033-1.745c0.764-0.196,1.548,0.267,1.745,1.034l3.005,11.733l9.805-25.953
						c0.23-0.607,0.843-0.982,1.483-0.92l32.26,3.203c0.42,0.042,0.8,0.266,1.039,0.613c0.239,0.347,0.313,0.783,0.203,1.19
						l-3.541,13.03c-0.207,0.764-0.993,1.217-1.76,1.007c-0.764-0.207-1.215-0.995-1.007-1.76l3.096-11.394l-29.479-2.927
						l-11.02,29.171C140.918,127.883,140.382,128.25,139.789,128.25z"/>
				</g>
				<g>
					<path style="fill:#FFC530;" d="M151.102,128.785c-0.812,0-1.558-0.061-2.188-0.158c-0.783-0.12-1.32-0.852-1.199-1.635
						c0.12-0.783,0.85-1.324,1.633-1.2c0.328,0.048,7.769,1.097,9.433-4.132c0.382-1.202,0.311-2.19-0.216-3.02
						c-1.178-1.854-4.362-2.646-5.49-2.795c-0.422-0.056-0.797-0.296-1.025-0.656c-0.227-0.36-0.283-0.802-0.152-1.207l3.148-9.738
						c0.229-0.71,0.963-1.124,1.689-0.956l8.459,1.967c0.771,0.179,1.251,0.95,1.072,1.722c-0.179,0.771-0.952,1.254-1.722,1.072
						l-7.174-1.668l-2.255,6.975c1.763,0.482,4.475,1.548,5.871,3.747c0.983,1.547,1.166,3.424,0.528,5.427
						C159.932,127.504,154.825,128.785,151.102,128.785z"/>
				</g>
				<g>
					<g>
						<path style="fill:#FFC530;" d="M379.813,132.711c-11.577,0-20.995-9.418-20.995-20.995s9.418-20.994,20.995-20.994
							c11.576,0,20.994,9.418,20.994,20.994S391.388,132.711,379.813,132.711z M379.813,93.591c-9.995,0-18.127,8.131-18.127,18.126
							s8.132,18.126,18.127,18.126c9.994,0,18.126-8.132,18.126-18.126S389.807,93.591,379.813,93.591z"/>
					</g>
					<g>
						<path style="fill:#FFC530;" d="M379.918,125.067c-0.133,0-0.264-0.002-0.397-0.006c-6.648-0.205-11.193-5.538-11.384-5.764
							c-0.509-0.607-0.429-1.511,0.177-2.02c0.607-0.51,1.509-0.429,2.019,0.175c0.046,0.054,3.948,4.59,9.298,4.744
							c3.323,0.1,6.598-1.522,9.717-4.807c0.545-0.576,1.452-0.598,2.028-0.053c0.574,0.545,0.597,1.453,0.052,2.027
							C387.833,123.15,383.962,125.067,379.918,125.067z"/>
					</g>
					<g>
						<path style="fill:#FFC530;" d="M369.238,108.636c-0.412,0-0.82-0.176-1.104-0.517c-0.506-0.609-0.423-1.513,0.186-2.019
							c1.861-1.546,6.348-3.523,10.01,0.08c0.565,0.556,0.572,1.463,0.017,2.028c-0.556,0.566-1.464,0.571-2.028,0.017
							c-2.749-2.705-6.026-0.035-6.165,0.08C369.886,108.527,369.561,108.636,369.238,108.636z"/>
					</g>
					<g>
						<path style="fill:#FFC530;" d="M390.389,108.636c-0.363,0-0.726-0.137-1.005-0.412c-2.671-2.628-5.822-0.2-6.171,0.085
							c-0.612,0.499-1.514,0.412-2.017-0.198c-0.501-0.609-0.419-1.507,0.188-2.012c1.862-1.548,6.351-3.521,10.011,0.08
							c0.565,0.556,0.572,1.463,0.017,2.028C391.13,108.493,390.759,108.636,390.389,108.636z"/>
					</g>
				</g>
				<g>
					<path style="fill:#FFC530;" d="M258.174,57.827c-0.748,0-1.377-0.579-1.429-1.335l-2.627-37.91
						c-0.031-0.437,0.14-0.863,0.464-1.158c0.323-0.295,0.767-0.427,1.195-0.357l55.994,9.064c0.638,0.103,1.127,0.62,1.197,1.261
						l2.77,25.494c0.042,0.39-0.077,0.781-0.331,1.08c-0.253,0.3-0.618,0.483-1.009,0.506l-56.137,3.352
						C258.231,57.826,258.202,57.827,258.174,57.827z M257.103,20.187l2.404,34.69l53.217-3.178l-2.49-22.912L257.103,20.187z"/>
				</g>
				<g>
					<path style="fill:#FFC530;" d="M276.139,47.511c-0.309,0-0.613-0.1-0.865-0.291c-0.359-0.271-0.569-0.694-0.569-1.143v-13.78
						c0-0.45,0.211-0.873,0.57-1.145c0.358-0.271,0.823-0.357,1.257-0.234l24.325,6.93c0.617,0.176,1.042,0.739,1.041,1.381
						c-0.001,0.641-0.428,1.204-1.046,1.378l-24.325,6.85C276.4,47.493,276.269,47.511,276.139,47.511z M277.573,34.196v9.986
						l17.629-4.964L277.573,34.196z"/>
				</g>
				<g>
					<g>
						<path style="fill:#FFC530;" d="M163.661,74.289c-0.629,0-1.205-0.417-1.381-1.052l-3.988-14.414
							c-0.211-0.763,0.237-1.553,1-1.764c0.765-0.213,1.553,0.237,1.765,1l3.987,14.414c0.211,0.763-0.237,1.553-1,1.765
							C163.916,74.272,163.787,74.289,163.661,74.289z"/>
					</g>
					<g>
						<path style="fill:#FFC530;" d="M154.459,69.076c-0.629,0-1.205-0.417-1.381-1.052c-0.211-0.763,0.237-1.553,1-1.765
							l14.415-3.987c0.764-0.212,1.553,0.237,1.765,1c0.211,0.763-0.237,1.553-1,1.764l-14.415,3.987
							C154.715,69.059,154.586,69.076,154.459,69.076z"/>
					</g>
				</g>
				<g>
					<g>
						<path style="fill:#FFC530;" d="M98.28,173.884c-0.629,0-1.205-0.417-1.381-1.052l-3.988-14.414
							c-0.211-0.763,0.237-1.553,1-1.765c0.765-0.212,1.553,0.237,1.765,1l3.987,14.414c0.211,0.763-0.237,1.553-1,1.765
							C98.535,173.867,98.406,173.884,98.28,173.884z"/>
					</g>
					<g>
						<path style="fill:#FFC530;" d="M89.079,168.67c-0.629,0-1.205-0.417-1.381-1.052c-0.211-0.763,0.237-1.553,1-1.764
							l14.414-3.987c0.763-0.212,1.553,0.237,1.764,1c0.211,0.763-0.237,1.553-1,1.765l-14.414,3.987
							C89.334,168.654,89.205,168.67,89.079,168.67z"/>
					</g>
				</g>
				<g>
					<g>
						<path style="fill:#FFC530;" d="M334.33,139.188c-0.628,0-1.205-0.417-1.381-1.052l-3.282-11.865
							c-0.212-0.763,0.236-1.554,1-1.765c0.76-0.213,1.553,0.236,1.764,1l3.282,11.865c0.212,0.763-0.236,1.553-1,1.764
							C334.585,139.171,334.457,139.188,334.33,139.188z"/>
					</g>
					<g>
						<path style="fill:#FFC530;" d="M326.757,134.897c-0.628,0-1.205-0.417-1.381-1.052c-0.212-0.763,0.236-1.553,1-1.764
							l11.864-3.282c0.759-0.212,1.553,0.236,1.764,1c0.212,0.763-0.236,1.553-0.999,1.764l-11.865,3.282
							C327.012,134.88,326.884,134.897,326.757,134.897z"/>
					</g>
				</g>
				<g>
					<g>
						<path style="fill:#FFC530;" d="M212.357,224.878c-0.629,0-1.205-0.417-1.381-1.052l-3.282-11.865
							c-0.211-0.763,0.237-1.553,1-1.765c0.764-0.212,1.553,0.237,1.764,1l3.282,11.865c0.211,0.763-0.237,1.553-1,1.765
							C212.612,224.861,212.483,224.878,212.357,224.878z"/>
					</g>
					<g>
						<path style="fill:#FFC530;" d="M204.783,220.587c-0.629,0-1.205-0.417-1.381-1.052c-0.211-0.763,0.237-1.553,1-1.765
							l11.865-3.282c0.763-0.211,1.553,0.237,1.764,1c0.211,0.763-0.237,1.553-1,1.765l-11.865,3.282
							C205.038,220.57,204.909,220.587,204.783,220.587z"/>
					</g>
				</g>
				<g>
					<g>
						<path style="fill:#FFC530;" d="M440.628,336.249c-0.628,0-1.205-0.416-1.381-1.052l-3.282-11.865
							c-0.212-0.763,0.236-1.553,1-1.764c0.76-0.21,1.553,0.235,1.764,1l3.282,11.865c0.212,0.763-0.236,1.552-1,1.763
							C440.883,336.232,440.755,336.249,440.628,336.249z"/>
					</g>
					<g>
						<path style="fill:#FFC530;" d="M433.054,331.957c-0.628,0-1.205-0.416-1.381-1.052c-0.212-0.763,0.236-1.553,1-1.764
							l11.865-3.282c0.759-0.212,1.553,0.236,1.764,1c0.212,0.763-0.236,1.553-1,1.764l-11.865,3.282
							C433.309,331.94,433.181,331.957,433.054,331.957z"/>
					</g>
				</g>
				<g>
					<g>
						<path style="fill:#FFC530;" d="M324.257,89.217c-0.628,0-1.205-0.417-1.381-1.052l-3.282-11.865
							c-0.212-0.763,0.236-1.554,1-1.765c0.761-0.212,1.553,0.236,1.764,1L325.64,87.4c0.212,0.763-0.236,1.553-1,1.764
							C324.512,89.2,324.384,89.217,324.257,89.217z"/>
					</g>
					<g>
						<path style="fill:#FFC530;" d="M316.684,84.925c-0.628,0-1.205-0.417-1.381-1.052c-0.212-0.763,0.236-1.553,0.999-1.765
							l11.865-3.282c0.761-0.211,1.553,0.236,1.764,1c0.212,0.763-0.236,1.553-1,1.764l-11.864,3.282
							C316.94,84.909,316.811,84.925,316.684,84.925z"/>
					</g>
				</g>
				<g>
					<g>
						<path style="fill:#FFC530;" d="M381.452,156.949c-0.628,0-1.205-0.417-1.381-1.052l-3.282-11.865
							c-0.212-0.763,0.236-1.553,1-1.764c0.76-0.212,1.553,0.236,1.764,1l3.282,11.865c0.212,0.763-0.236,1.553-1,1.764
							C381.707,156.932,381.579,156.949,381.452,156.949z"/>
					</g>
					<g>
						<path style="fill:#FFC530;" d="M373.879,152.657c-0.628,0-1.205-0.417-1.381-1.052c-0.212-0.763,0.236-1.553,0.999-1.764
							l11.865-3.282c0.76-0.212,1.553,0.236,1.764,1c0.212,0.763-0.236,1.553-1,1.764l-11.864,3.282
							C374.134,152.64,374.006,152.657,373.879,152.657z"/>
					</g>
				</g>
				<g>
					<g>
						<path style="fill:#FFC530;" d="M46.674,373.335c-0.629,0-1.205-0.416-1.381-1.051l-3.283-11.865
							c-0.211-0.764,0.237-1.554,1-1.765c0.765-0.211,1.553,0.236,1.764,0.999l3.283,11.865c0.211,0.764-0.237,1.553-1,1.764
							C46.93,373.318,46.801,373.335,46.674,373.335z"/>
					</g>
					<g>
						<path style="fill:#FFC530;" d="M39.1,369.044c-0.629,0-1.205-0.416-1.381-1.051c-0.211-0.764,0.237-1.553,1-1.764
							l11.865-3.283c0.764-0.211,1.553,0.236,1.764,0.999c0.211,0.764-0.237,1.553-1,1.764l-11.865,3.283
							C39.356,369.027,39.227,369.044,39.1,369.044z"/>
					</g>
				</g>
				<g>
					<path style="fill:#FFC530;" d="M354.145,92.957c-2.591,0-4.699-2.108-4.699-4.699c0-2.591,2.108-4.699,4.699-4.699
						c2.592,0,4.7,2.108,4.7,4.699C358.845,90.849,356.737,92.957,354.145,92.957z M354.145,86.427
						c-1.009,0-1.831,0.822-1.831,1.831c0,1.01,0.822,1.831,1.831,1.831c1.01,0,1.832-0.822,1.832-1.831
						C355.977,87.248,355.155,86.427,354.145,86.427z"/>
				</g>
				<g>
					<path style="fill:#FFC530;" d="M447.914,370.667c-2.592,0-4.7-2.108-4.7-4.699c0-2.592,2.108-4.7,4.7-4.7
						c2.591,0,4.699,2.108,4.699,4.7C452.613,368.559,450.505,370.667,447.914,370.667z M447.914,364.137
						c-1.01,0-1.832,0.822-1.832,1.832c0,1.009,0.822,1.831,1.832,1.831c1.009,0,1.831-0.822,1.831-1.831
						C449.745,364.958,448.923,364.137,447.914,364.137z"/>
				</g>
				<g>
					<path style="fill:#FFC530;" d="M276.139,235.301c-2.592,0-4.7-2.108-4.7-4.7c0-2.591,2.108-4.699,4.7-4.699
						c2.591,0,4.699,2.108,4.699,4.699C280.838,233.193,278.73,235.301,276.139,235.301z M276.139,228.77
						c-1.01,0-1.832,0.822-1.832,1.831c0,1.01,0.822,1.832,1.832,1.832c1.009,0,1.831-0.822,1.831-1.832
						C277.97,229.592,277.148,228.77,276.139,228.77z"/>
				</g>
				<g>
					<path style="fill:#FFC530;" d="M41.769,235.301c-2.592,0-4.7-2.108-4.7-4.7c0-2.591,2.108-4.699,4.7-4.699
						c2.591,0,4.699,2.108,4.699,4.699C46.468,233.193,44.36,235.301,41.769,235.301z M41.769,228.77
						c-1.01,0-1.832,0.822-1.832,1.831c0,1.01,0.822,1.832,1.832,1.832c1.01,0,1.831-0.822,1.831-1.832
						C43.6,229.592,42.778,228.77,41.769,228.77z"/>
				</g>
				<g>
					<path style="fill:#FFC530;" d="M423.218,35.63c-2.591,0-4.699-2.108-4.699-4.699c0-2.592,2.108-4.7,4.699-4.7
						c2.592,0,4.7,2.108,4.7,4.7C427.918,33.522,425.81,35.63,423.218,35.63z M423.218,29.099c-1.009,0-1.831,0.822-1.831,1.832
						c0,1.01,0.822,1.831,1.831,1.831c1.01,0,1.832-0.822,1.832-1.831C425.05,29.921,424.228,29.099,423.218,29.099z"/>
				</g>
				<g>
					<path style="fill:#FFC530;" d="M46.675,48.736c-2.592,0-4.7-2.108-4.7-4.699c0-2.591,2.108-4.699,4.7-4.699
						c2.591,0,4.699,2.108,4.699,4.699C51.375,46.628,49.266,48.736,46.675,48.736z M46.675,42.206c-1.01,0-1.832,0.822-1.832,1.831
						c0,1.01,0.821,1.831,1.832,1.831c1.01,0,1.831-0.822,1.831-1.831C48.507,43.027,47.685,42.206,46.675,42.206z"/>
				</g>
				<g>
					<g>
						<path style="fill:#FFC530;" d="M357.989,21.782c0-0.761-0.551-1.389-1.276-1.516c-0.506-1.666-1.822-2.982-3.488-3.488
							c-0.127-0.724-0.755-1.276-1.516-1.276s-1.389,0.552-1.516,1.276c-1.666,0.506-2.982,1.822-3.488,3.488
							c-0.724,0.127-1.276,0.755-1.276,1.516c0,0.761,0.551,1.389,1.276,1.516c0.506,1.666,1.822,2.982,3.488,3.488
							c0.127,0.724,0.755,1.276,1.516,1.276s1.389-0.552,1.516-1.276c1.666-0.506,2.982-1.822,3.488-3.488
							C357.437,23.171,357.989,22.543,357.989,21.782z M353.066,25.8c-0.259-0.488-0.766-0.823-1.357-0.823
							c-0.591,0-1.098,0.336-1.357,0.823c-1.249-0.423-2.237-1.411-2.66-2.66c0.488-0.259,0.824-0.766,0.824-1.357
							s-0.336-1.098-0.824-1.357c0.423-1.249,1.411-2.237,2.66-2.66c0.259,0.488,0.766,0.823,1.357,0.823
							c0.591,0,1.098-0.336,1.357-0.823c1.249,0.423,2.237,1.411,2.66,2.66c-0.488,0.259-0.824,0.766-0.824,1.357
							s0.336,1.098,0.824,1.357C355.303,24.389,354.315,25.376,353.066,25.8z"/>
					</g>
					<g>
						<path style="fill:#FFC530;" d="M351.709,20.24c-0.852,0-1.543,0.691-1.543,1.543c0,0.852,0.691,1.543,1.543,1.543
							c0.852,0,1.543-0.691,1.543-1.543C353.252,20.93,352.561,20.24,351.709,20.24z"/>
					</g>
				</g>
				<g>
					<g>
						<path style="fill:#FFC530;" d="M474.056,310.68c0-0.761-0.552-1.389-1.276-1.516c-0.506-1.666-1.822-2.982-3.488-3.488
							c-0.127-0.724-0.755-1.276-1.516-1.276c-0.761,0-1.389,0.552-1.516,1.276c-1.666,0.506-2.982,1.822-3.488,3.488
							c-0.724,0.127-1.276,0.755-1.276,1.516s0.552,1.389,1.276,1.516c0.506,1.666,1.822,2.982,3.488,3.488
							c0.127,0.724,0.755,1.276,1.516,1.276c0.761,0,1.389-0.552,1.516-1.276c1.666-0.506,2.982-1.822,3.488-3.488
							C473.505,312.069,474.056,311.44,474.056,310.68z M469.134,314.697c-0.259-0.488-0.766-0.823-1.357-0.823
							c-0.591,0-1.098,0.336-1.357,0.823c-1.249-0.423-2.237-1.411-2.66-2.66c0.488-0.259,0.824-0.766,0.824-1.357
							s-0.336-1.098-0.824-1.357c0.423-1.249,1.411-2.237,2.66-2.66c0.259,0.488,0.766,0.824,1.357,0.824
							c0.591,0,1.098-0.336,1.357-0.824c1.249,0.423,2.237,1.411,2.66,2.66c-0.488,0.259-0.823,0.766-0.823,1.357
							s0.336,1.098,0.823,1.357C471.371,313.286,470.383,314.274,469.134,314.697z"/>
					</g>
					<g>
						<path style="fill:#FFC530;" d="M467.776,309.137c-0.852,0-1.543,0.691-1.543,1.543c0,0.852,0.691,1.543,1.543,1.543
							c0.852,0,1.543-0.691,1.543-1.543C469.319,309.828,468.629,309.137,467.776,309.137z"/>
					</g>
				</g>
				<g>
					<g>
						<path style="fill:#FFC530;" d="M57.246,282.537c0-0.761-0.552-1.389-1.276-1.516c-0.506-1.666-1.822-2.982-3.488-3.488
							c-0.127-0.724-0.755-1.276-1.516-1.276c-0.761,0-1.389,0.552-1.516,1.276c-1.666,0.506-2.982,1.822-3.488,3.488
							c-0.724,0.127-1.276,0.755-1.276,1.516c0,0.761,0.552,1.389,1.276,1.516c0.506,1.666,1.822,2.982,3.488,3.488
							c0.127,0.724,0.755,1.276,1.516,1.276c0.761,0,1.389-0.552,1.516-1.276c1.666-0.506,2.982-1.822,3.488-3.488
							C56.695,283.926,57.246,283.297,57.246,282.537z M52.324,286.554c-0.259-0.488-0.766-0.823-1.357-0.823
							c-0.591,0-1.098,0.336-1.357,0.823c-1.249-0.423-2.237-1.411-2.66-2.66c0.488-0.259,0.824-0.766,0.824-1.357
							c0-0.591-0.336-1.098-0.824-1.357c0.423-1.249,1.411-2.237,2.66-2.66c0.259,0.488,0.766,0.823,1.357,0.823
							c0.591,0,1.098-0.336,1.357-0.823c1.249,0.423,2.237,1.411,2.66,2.66c-0.488,0.259-0.823,0.766-0.823,1.357
							c0,0.591,0.336,1.098,0.823,1.357C54.561,285.143,53.573,286.131,52.324,286.554z"/>
					</g>
					<g>
						<path style="fill:#FFC530;" d="M50.966,280.994c-0.852,0-1.543,0.691-1.543,1.543c0,0.852,0.691,1.543,1.543,1.543
							c0.852,0,1.543-0.691,1.543-1.543C52.509,281.685,51.819,280.994,50.966,280.994z"/>
					</g>
				</g>
				<g>
					<g>
						<path style="fill:#FFC530;" d="M38.503,119.609c0-0.761-0.552-1.389-1.276-1.516c-0.506-1.666-1.822-2.982-3.488-3.488
							c-0.127-0.724-0.755-1.276-1.516-1.276c-0.761,0-1.389,0.552-1.516,1.276c-1.666,0.506-2.982,1.822-3.488,3.488
							c-0.724,0.127-1.276,0.755-1.276,1.516c0,0.761,0.552,1.389,1.276,1.516c0.506,1.666,1.822,2.982,3.488,3.488
							c0.127,0.724,0.755,1.276,1.516,1.276c0.761,0,1.389-0.552,1.516-1.276c1.666-0.506,2.982-1.822,3.488-3.488
							C37.952,120.998,38.503,120.369,38.503,119.609z M33.581,123.626c-0.259-0.488-0.766-0.823-1.357-0.823
							c-0.591,0-1.098,0.336-1.357,0.823c-1.249-0.423-2.237-1.411-2.66-2.66c0.488-0.259,0.823-0.766,0.823-1.357
							c0-0.591-0.336-1.098-0.823-1.357c0.423-1.249,1.411-2.237,2.66-2.66c0.259,0.488,0.766,0.823,1.357,0.823
							c0.591,0,1.098-0.336,1.357-0.823c1.249,0.423,2.237,1.411,2.66,2.66c-0.488,0.259-0.824,0.766-0.824,1.357
							c0,0.591,0.336,1.098,0.824,1.357C35.818,122.215,34.83,123.203,33.581,123.626z"/>
					</g>
					<g>
						<path style="fill:#FFC530;" d="M32.223,118.066c-0.852,0-1.543,0.691-1.543,1.543c0,0.852,0.691,1.543,1.543,1.543
							c0.852,0,1.543-0.691,1.543-1.543C33.766,118.757,33.076,118.066,32.223,118.066z"/>
					</g>
				</g>
				<g>
					<g>
						<path style="fill:#FFC530;" d="M108.24,130.546c0-0.761-0.551-1.389-1.276-1.516c-0.506-1.666-1.822-2.982-3.488-3.488
							c-0.127-0.724-0.755-1.276-1.516-1.276c-0.761,0-1.389,0.552-1.516,1.276c-1.666,0.506-2.982,1.822-3.488,3.488
							c-0.724,0.127-1.276,0.755-1.276,1.516c0,0.761,0.551,1.389,1.276,1.516c0.506,1.666,1.822,2.982,3.488,3.488
							c0.127,0.724,0.755,1.276,1.516,1.276c0.761,0,1.389-0.552,1.516-1.276c1.666-0.506,2.982-1.822,3.488-3.488
							C107.689,131.935,108.24,131.307,108.24,130.546z M103.318,134.564c-0.259-0.488-0.766-0.823-1.357-0.823
							c-0.591,0-1.098,0.336-1.357,0.823c-1.249-0.423-2.237-1.411-2.66-2.66c0.488-0.259,0.824-0.766,0.824-1.357
							c0-0.591-0.336-1.098-0.824-1.357c0.423-1.249,1.411-2.237,2.66-2.66c0.259,0.488,0.766,0.823,1.357,0.823
							c0.591,0,1.098-0.336,1.357-0.823c1.249,0.423,2.237,1.411,2.66,2.66c-0.488,0.259-0.824,0.766-0.824,1.357
							c0,0.591,0.336,1.098,0.824,1.357C105.555,133.153,104.567,134.141,103.318,134.564z"/>
					</g>
					<g>
						<path style="fill:#FFC530;" d="M101.961,129.003c-0.852,0-1.543,0.691-1.543,1.543c0,0.852,0.691,1.543,1.543,1.543
							c0.852,0,1.543-0.691,1.543-1.543C103.504,129.694,102.813,129.003,101.961,129.003z"/>
					</g>
				</g>
				<g>
					<g>
						<path style="fill:#FFC530;" d="M305.853,91.523c0-0.761-0.552-1.389-1.276-1.516c-0.506-1.666-1.822-2.982-3.488-3.488
							c-0.127-0.724-0.755-1.276-1.516-1.276c-0.761,0-1.389,0.552-1.516,1.276c-1.666,0.506-2.982,1.822-3.488,3.488
							c-0.724,0.127-1.276,0.755-1.276,1.516s0.552,1.389,1.276,1.516c0.506,1.666,1.822,2.982,3.488,3.488
							c0.127,0.724,0.755,1.276,1.516,1.276c0.761,0,1.389-0.552,1.516-1.276c1.666-0.506,2.982-1.822,3.488-3.488
							C305.301,92.912,305.853,92.284,305.853,91.523z M300.93,95.54c-0.259-0.488-0.766-0.823-1.357-0.823
							c-0.591,0-1.098,0.336-1.357,0.823c-1.249-0.423-2.237-1.411-2.66-2.66c0.488-0.259,0.824-0.766,0.824-1.357
							s-0.336-1.098-0.824-1.357c0.423-1.249,1.411-2.237,2.66-2.66c0.259,0.488,0.766,0.823,1.357,0.823
							c0.591,0,1.098-0.336,1.357-0.823c1.249,0.423,2.237,1.411,2.66,2.66c-0.488,0.259-0.824,0.766-0.824,1.357
							s0.336,1.098,0.824,1.357C303.167,94.129,302.179,95.117,300.93,95.54z"/>
					</g>
					<g>
						<path style="fill:#FFC530;" d="M299.573,89.98c-0.852,0-1.543,0.691-1.543,1.543c0,0.852,0.691,1.543,1.543,1.543
							c0.852,0,1.543-0.691,1.543-1.543C301.116,90.671,300.425,89.98,299.573,89.98z"/>
					</g>
				</g>
				<g>
					<path style="fill:#FFC530;" d="M460.479,56.295l-33.461-10.162c-0.279-0.085-0.581-0.081-0.86,0.008l-30.917,10.048
						c-0.619,0.201-1.025,0.794-0.989,1.445c0.037,0.65,0.507,1.194,1.145,1.324l13.574,2.774l-1.963,24.358
						c-0.042,0.517,0.199,1.016,0.629,1.305c0.35,0.236,8.711,5.768,20.531,5.768c6.954,0,13.646-1.929,19.887-5.733
						c0.493-0.3,0.758-0.866,0.672-1.437l-3.574-23.869l0.899-0.181l4.526,1.1v34.554c-2.24,1.435-3.266,6.236-3.266,11.014
						c0,5.702,1.454,11.456,4.7,11.456c3.246,0,4.7-5.754,4.7-11.456c0-4.778-1.025-9.578-3.266-11.014V61.915
						c0-0.569-0.345-1.057-0.848-1.287l7.745-1.555c0.644-0.129,1.118-0.68,1.15-1.337C461.527,57.08,461.109,56.486,460.479,56.295
						z M452.013,117.137c-0.621-0.567-1.832-3.424-1.832-8.527c0-5.103,1.211-7.961,1.832-8.528
						c0.621,0.567,1.832,3.424,1.832,8.528C453.845,113.713,452.634,116.571,452.013,117.137z M445.749,85.463
						c-5.55,3.206-11.46,4.83-17.58,4.83c-9.05,0-16.059-3.598-18.231-4.854l1.864-23.128l15.785,3.223
						c0.094,0.019,0.189,0.029,0.285,0.029c0.001,0,0.001,0,0.002,0c0.094,0,0.19-0.009,0.282-0.028l14.183-2.848L445.749,85.463z
						 M446.112,59.005l-18.855-4.582c-0.77-0.186-1.545,0.285-1.733,1.055c-0.187,0.769,0.286,1.545,1.055,1.732l12.88,3.13
						l-11.583,2.327l-26.58-5.431l25.32-8.228l27.575,8.375L446.112,59.005z"/>
				</g>
				<g>
					<g>
						<g>
							<g>
								<path style="fill:#FFC530;" d="M401.924,210.098h4.497v6.484c0,3.27-1.636,5.139-4.789,5.139
									c-3.155,0-4.789-1.869-4.789-5.139v-10.63c0-3.271,1.635-5.14,4.789-5.14c3.154,0,4.789,1.869,4.789,5.14v1.986h-3.037
									v-2.19c0-1.46-0.642-2.015-1.665-2.015s-1.665,0.555-1.665,2.015v11.039c0,1.461,0.642,1.986,1.665,1.986
									s1.665-0.526,1.665-1.986v-3.767h-1.46V210.098z"/>
							</g>
							<g>
								<path style="fill:#FFC530;" d="M408.235,205.951c0-3.271,1.723-5.14,4.877-5.14c3.154,0,4.877,1.869,4.877,5.14v10.63
									c0,3.27-1.723,5.139-4.877,5.139c-3.155,0-4.877-1.869-4.877-5.139V205.951z M411.447,216.785
									c0,1.461,0.642,2.015,1.665,2.015s1.665-0.555,1.665-2.015v-11.039c0-1.46-0.642-2.015-1.665-2.015
									s-1.665,0.555-1.665,2.015V216.785z"/>
							</g>
							<g>
								<path style="fill:#FFC530;" d="M419.801,205.951c0-3.271,1.723-5.14,4.877-5.14c3.154,0,4.877,1.869,4.877,5.14v10.63
									c0,3.27-1.724,5.139-4.877,5.139c-3.155,0-4.877-1.869-4.877-5.139V205.951z M423.014,216.785
									c0,1.461,0.642,2.015,1.665,2.015s1.665-0.555,1.665-2.015v-11.039c0-1.46-0.642-2.015-1.665-2.015
									s-1.665,0.555-1.665,2.015V216.785z"/>
							</g>
							<g>
								<path style="fill:#FFC530;" d="M431.631,201.044h5.082c3.212,0,4.789,1.782,4.789,5.053v10.338
									c0,3.271-1.577,5.052-4.789,5.052h-5.082V201.044z M434.843,203.964v14.603h1.811c1.021,0,1.635-0.526,1.635-1.986v-10.63
									c0-1.46-0.613-1.986-1.635-1.986H434.843z"/>
							</g>
						</g>
						<g>
							<g>
								<path style="fill:#FFC530;" d="M404.247,244.47c0.35,0.029,0.759,0.029,1.11,0.029c1.021,0,1.839-0.38,1.839-1.956v-15.595
									h3.212v15.362c0,4.089-2.19,5.14-4.614,5.14c-0.584,0-1.022,0-1.548-0.058V244.47z"/>
							</g>
							<g>
								<path style="fill:#FFC530;" d="M412.338,231.853c0-3.271,1.723-5.14,4.877-5.14c3.154,0,4.877,1.869,4.877,5.14v10.631
									c0,3.27-1.723,5.14-4.877,5.14c-3.155,0-4.877-1.869-4.877-5.14V231.853z M415.55,242.688c0,1.461,0.642,2.015,1.665,2.015
									c1.022,0,1.665-0.555,1.665-2.015v-11.039c0-1.46-0.642-2.015-1.665-2.015c-1.022,0-1.665,0.555-1.665,2.015V242.688z"/>
							</g>
							<g>
								<path style="fill:#FFC530;" d="M433.776,231.649v0.73c0,2.102-0.642,3.417-2.073,4.089v0.058
									c1.723,0.672,2.395,2.19,2.395,4.352v1.665c0,3.154-1.665,4.848-4.877,4.848h-5.053v-20.443h4.848
									C432.345,226.947,433.776,228.495,433.776,231.649z M427.38,229.867v5.403h1.256c1.198,0,1.928-0.526,1.928-2.161v-1.139
									c0-1.46-0.497-2.103-1.636-2.103H427.38z M427.38,238.191v6.279h1.84c1.08,0,1.665-0.497,1.665-2.015v-1.781
									c0-1.898-0.613-2.482-2.074-2.482H427.38z"/>
							</g>
						</g>
					</g>
					<g>
						<path style="fill:#FFC530;" d="M407.328,279.845c-0.099,0-0.199-0.01-0.298-0.031c-0.577-0.123-1.02-0.585-1.117-1.167
							l-2.774-16.641l-17.23,7.831c-0.465,0.212-1.006,0.16-1.423-0.135c-0.416-0.295-0.644-0.789-0.599-1.297l1.533-17.277
							l-14.91-3.934c-0.533-0.141-0.938-0.575-1.043-1.117c-0.104-0.541,0.113-1.095,0.556-1.423l17.906-13.238l-19.266-8.381
							c-0.496-0.216-0.828-0.692-0.859-1.231c-0.032-0.54,0.243-1.051,0.709-1.323l18.049-10.506l-11.071-25.684
							c-0.226-0.525-0.119-1.134,0.273-1.55c0.393-0.416,0.995-0.56,1.531-0.366l26.115,9.413l9.533-24.847
							c0.213-0.555,0.745-0.921,1.339-0.921c0.001,0,0.003,0,0.004,0c0.595,0.001,1.128,0.371,1.338,0.927l9.275,24.55l22.979-13.85
							c0.447-0.271,1.007-0.275,1.46-0.012c0.453,0.263,0.726,0.751,0.714,1.274l-0.44,18.362l17.81-1.943
							c0.56-0.06,1.099,0.208,1.386,0.689c0.288,0.481,0.269,1.085-0.048,1.547l-10.087,14.712l11.083,8.988
							c0.406,0.33,0.601,0.855,0.507,1.37c-0.093,0.515-0.46,0.938-0.957,1.104l-14.255,4.753l14.884,17.116
							c0.358,0.413,0.452,0.993,0.24,1.497c-0.212,0.504-0.692,0.844-1.237,0.876l-16.666,0.986l1.714,16.23
							c0.051,0.494-0.156,0.979-0.548,1.284c-0.392,0.305-0.916,0.384-1.38,0.21l-19.188-7.162l-1.891,19.025
							c-0.057,0.576-0.456,1.061-1.009,1.23c-0.556,0.166-1.156-0.013-1.524-0.46l-11.106-13.479l-8.818,13.357
							C408.256,279.608,407.803,279.845,407.328,279.845z M417.215,262c0.427,0,0.834,0.19,1.106,0.522l10.148,12.316l1.735-17.446
							c0.044-0.443,0.29-0.84,0.668-1.076c0.378-0.233,0.842-0.282,1.259-0.126l18.761,7.002l-1.628-15.419
							c-0.041-0.389,0.079-0.779,0.332-1.077c0.254-0.299,0.618-0.482,1.009-0.504l15.254-0.903l-14.38-16.538
							c-0.315-0.362-0.428-0.857-0.302-1.319c0.127-0.463,0.475-0.831,0.93-0.983l13.813-4.605l-10.079-8.175
							c-0.58-0.471-0.701-1.308-0.279-1.925l9.069-13.228l-16.334,1.782c-0.415,0.044-0.822-0.09-1.126-0.37
							c-0.304-0.28-0.473-0.677-0.464-1.09l0.416-17.389l-22.216,13.391c-0.364,0.219-0.807,0.266-1.21,0.127
							c-0.402-0.14-0.722-0.45-0.872-0.848l-8.553-22.636l-8.687,22.643c-0.279,0.729-1.091,1.1-1.825,0.836l-24.324-8.768
							l10.264,23.813c0.287,0.666,0.031,1.442-0.596,1.807l-16.699,9.721l18.948,8.242c0.47,0.204,0.794,0.644,0.852,1.153
							c0.058,0.509-0.161,1.011-0.572,1.315l-17.5,12.938l13.189,3.479c0.675,0.178,1.124,0.817,1.063,1.513l-1.423,16.033
							l16.691-7.586c0.408-0.186,0.875-0.171,1.268,0.039c0.394,0.21,0.667,0.591,0.74,1.03l2.481,14.883l7.876-11.931
							c0.251-0.38,0.667-0.618,1.121-0.642C417.164,262.001,417.19,262,417.215,262z"/>
					</g>
				</g>
			</g>
		</g>
	</g>
	<g>
		<g>
			<g>
				<path style="fill:#FFC530;" d="M264.175,312.771c0.213-0.599,0.464-1.165,0.753-1.698c0.289-0.533,0.589-0.999,0.9-1.399
					c0.31-0.4,0.621-0.716,0.93-0.949c0.31-0.232,0.592-0.348,0.852-0.348c0.259,0,0.466,0.115,0.622,0.347
					c0.156,0.232,0.258,0.547,0.307,0.951c0.048,0.403,0.04,0.879-0.027,1.427c-0.068,0.55-0.198,1.137-0.394,1.755
					c-0.196,0.618-0.434,1.194-0.715,1.723c-0.281,0.529-0.58,0.98-0.897,1.358s-0.64,0.668-0.969,0.879
					c-0.328,0.211-0.636,0.313-0.918,0.307s-0.506-0.122-0.67-0.35c-0.164-0.228-0.263-0.537-0.299-0.931
					c-0.036-0.393-0.01-0.855,0.077-1.383C263.812,313.934,263.963,313.37,264.175,312.771z M265.201,312.798
					c-0.101,0.294-0.173,0.573-0.215,0.836c-0.043,0.264-0.056,0.497-0.04,0.699c0.016,0.202,0.061,0.364,0.135,0.486
					c0.074,0.122,0.177,0.185,0.308,0.189c0.13,0.004,0.274-0.05,0.432-0.165c0.157-0.115,0.313-0.27,0.469-0.468
					c0.155-0.198,0.301-0.428,0.438-0.693c0.136-0.263,0.253-0.545,0.35-0.844c0.094-0.291,0.161-0.574,0.2-0.847
					c0.039-0.273,0.048-0.51,0.027-0.712c-0.021-0.202-0.068-0.364-0.141-0.487c-0.073-0.122-0.172-0.184-0.298-0.185
					c-0.126-0.001-0.265,0.06-0.418,0.181c-0.153,0.121-0.304,0.28-0.455,0.478c-0.151,0.198-0.295,0.431-0.435,0.699
					C265.418,312.234,265.299,312.511,265.201,312.798z"/>
				<path style="fill:#FFC530;" d="M273.751,308.802c-1.009,3.151-1.547,5.072-2.57,7.958c-0.025,0.07-0.059,0.13-0.102,0.179
					c-0.043,0.049-0.084,0.074-0.121,0.075c-0.329,0.007-0.493,0.01-0.821,0.016c-0.037,0.001-0.068-0.02-0.094-0.06
					c-0.026-0.041-0.04-0.089-0.043-0.145c-0.036-1.533-0.053-2.415-0.076-4.191c-0.002-0.065-0.016-0.092-0.044-0.079
					c-0.027,0.012-0.053,0.057-0.078,0.138c-0.535,1.723-0.806,2.595-1.335,4.109c-0.025,0.071-0.059,0.13-0.101,0.178
					c-0.043,0.048-0.083,0.072-0.12,0.072c-0.328-0.004-0.492-0.007-0.819-0.012c-0.037-0.001-0.059-0.026-0.067-0.075
					c-0.008-0.05,0.001-0.11,0.026-0.182c1.031-2.926,1.551-4.815,2.554-7.978c0.025-0.077,0.057-0.142,0.099-0.196
					c0.042-0.053,0.08-0.08,0.116-0.081c0.318,0,0.479,0,0.806,0c0.036,0,0.068,0.021,0.095,0.063
					c0.027,0.042,0.042,0.093,0.044,0.155c0.04,1.689,0.058,2.622,0.089,4.37c0.002,0.064,0.017,0.092,0.044,0.083
					c0.026-0.008,0.052-0.052,0.077-0.132c0.537-1.712,0.807-2.614,1.329-4.264c0.024-0.077,0.058-0.141,0.102-0.195
					c0.043-0.053,0.084-0.08,0.121-0.08c0.335,0,0.503,0,0.841,0c0.038,0,0.062,0.027,0.071,0.08
					C273.783,308.661,273.775,308.725,273.751,308.802z"/>
				<path style="fill:#FFC530;" d="M275.599,315.196c-0.215,0.61-0.322,0.908-0.536,1.481c-0.026,0.07-0.062,0.13-0.106,0.179
					c-0.044,0.049-0.085,0.074-0.122,0.075c-1.112,0.024-1.669,0.036-2.781,0.06c-0.041,0.001-0.064-0.023-0.071-0.071
					c-0.007-0.048,0.003-0.107,0.028-0.178c1.034-2.886,1.573-4.792,2.592-7.941c0.025-0.077,0.058-0.141,0.101-0.195
					c0.042-0.053,0.084-0.08,0.127-0.08c0.345,0,0.518,0,0.864,0c0.038,0,0.062,0.027,0.072,0.08
					c0.009,0.054,0.001,0.118-0.024,0.195c-0.757,2.299-1.147,3.595-1.919,5.887c-0.026,0.076-0.035,0.141-0.029,0.194
					c0.007,0.052,0.03,0.079,0.072,0.078c0.677-0.013,1.016-0.019,1.693-0.031c0.037-0.001,0.06,0.025,0.068,0.077
					C275.635,315.057,275.626,315.121,275.599,315.196z"/>
				<path style="fill:#FFC530;" d="M276.368,316.9c-0.335,0.007-0.502,0.01-0.837,0.017c-0.041,0.001-0.063-0.023-0.069-0.071
					c-0.006-0.048,0.005-0.107,0.031-0.178c1.081-2.879,1.63-4.721,2.7-7.856c0.026-0.076,0.061-0.141,0.104-0.195
					c0.043-0.053,0.085-0.08,0.127-0.08c0.345,0,0.518,0,0.861,0c0.038,0,0.061,0.027,0.069,0.08
					c0.008,0.054-0.001,0.119-0.028,0.195c-1.084,3.133-1.636,4.955-2.729,7.834c-0.027,0.07-0.063,0.13-0.107,0.179
					C276.445,316.874,276.405,316.899,276.368,316.9z"/>
				<path style="fill:#FFC530;" d="M283.985,308.825c-1.138,3.087-1.723,4.791-2.834,7.716c-0.027,0.071-0.063,0.132-0.108,0.182
					c-0.045,0.05-0.086,0.076-0.122,0.076c-0.327,0.007-0.491,0.011-0.818,0.019c-0.037,0.001-0.067-0.02-0.091-0.06
					c-0.024-0.041-0.037-0.089-0.037-0.146c0.017-1.54,0.033-2.368,0.047-4.074c-0.001-0.062-0.015-0.088-0.043-0.075
					c-0.028,0.012-0.055,0.056-0.082,0.134c-0.578,1.668-0.867,2.504-1.447,4.013c-0.027,0.07-0.063,0.13-0.108,0.179
					c-0.045,0.049-0.086,0.074-0.123,0.075c-0.332,0.006-0.499,0.009-0.831,0.015c-0.037,0.001-0.06-0.023-0.067-0.071
					c-0.007-0.048,0.003-0.108,0.03-0.178c1.102-2.883,1.655-4.696,2.749-7.831c0.027-0.076,0.062-0.141,0.108-0.195
					c0.045-0.053,0.086-0.08,0.124-0.08c0.339,0,0.508,0,0.843,0c0.037,0,0.069,0.021,0.095,0.063
					c0.026,0.042,0.04,0.093,0.04,0.154c-0.012,1.679-0.022,2.564-0.039,4.24c0,0.061,0.014,0.088,0.041,0.079
					c0.027-0.008,0.054-0.05,0.081-0.127c0.584-1.648,0.878-2.501,1.461-4.129c0.027-0.076,0.064-0.139,0.11-0.193
					c0.046-0.052,0.088-0.078,0.126-0.078c0.34,0.005,0.512,0.008,0.858,0.016c0.039,0.001,0.062,0.028,0.07,0.081
					C284.023,308.686,284.013,308.75,283.985,308.825z"/>
				<path style="fill:#FFC530;" d="M285.235,310.939c-0.074,0.189-0.111,0.284-0.184,0.473c-0.029,0.075-0.041,0.139-0.034,0.192
					c0.007,0.052,0.029,0.079,0.068,0.079c0.63,0.004,0.946,0.007,1.577,0.012c0.039,0,0.061,0.027,0.067,0.078
					c0.005,0.053-0.007,0.115-0.038,0.189c-0.254,0.612-0.38,0.918-0.63,1.529c-0.03,0.074-0.069,0.136-0.117,0.189
					c-0.048,0.052-0.09,0.078-0.128,0.078c-0.617,0.004-0.927,0.006-1.544,0.013c-0.038,0-0.08,0.026-0.127,0.079
					c-0.047,0.052-0.085,0.116-0.113,0.19c-0.066,0.17-0.098,0.254-0.164,0.423c-0.029,0.074-0.04,0.136-0.033,0.187
					c0.006,0.052,0.028,0.077,0.066,0.076c0.702-0.011,1.055-0.015,1.757-0.021c0.037,0,0.059,0.025,0.064,0.076
					c0.005,0.052-0.007,0.114-0.036,0.187c-0.246,0.608-0.367,0.911-0.604,1.514c-0.029,0.073-0.066,0.135-0.112,0.186
					c-0.046,0.051-0.087,0.077-0.124,0.077c-1.133,0.006-1.701,0.012-2.832,0.032c-0.037,0.001-0.059-0.024-0.066-0.073
					c-0.007-0.049,0.003-0.11,0.031-0.182c1.121-2.938,1.724-4.61,2.883-7.678c0.028-0.075,0.066-0.137,0.114-0.189
					c0.047-0.051,0.091-0.077,0.13-0.075c1.21,0.034,1.83,0.058,3.051,0.096c0.04,0.001,0.063,0.028,0.07,0.08
					c0.006,0.052-0.006,0.114-0.036,0.188c-0.25,0.596-0.376,0.895-0.628,1.495c-0.031,0.074-0.071,0.136-0.12,0.187
					c-0.049,0.052-0.093,0.076-0.132,0.076c-0.73-0.012-1.098-0.019-1.829-0.031c-0.039-0.001-0.083,0.025-0.13,0.077
					C285.303,310.801,285.264,310.864,285.235,310.939z"/>
			</g>
			<g>
				<path style="fill:#FFC530;" d="M257.89,326.089c-0.235,0.612-0.35,0.915-0.572,1.505c-0.027,0.072-0.063,0.134-0.106,0.184
					c-0.043,0.05-0.082,0.076-0.117,0.076c-1.04,0.003-1.565,0.004-2.668,0.007c-0.04,0-0.064-0.024-0.072-0.072
					c-0.008-0.048,0.001-0.106,0.025-0.176c0.979-2.844,1.678-4.777,2.959-7.837c0.031-0.075,0.07-0.137,0.116-0.188
					c0.046-0.051,0.09-0.076,0.131-0.074c0.335,0.012,0.503,0.018,0.837,0.028c0.037,0.001,0.058,0.028,0.063,0.08
					c0.004,0.053-0.009,0.115-0.04,0.19c-0.924,2.223-1.412,3.497-2.249,5.771c-0.028,0.076-0.04,0.14-0.035,0.192
					c0.005,0.052,0.027,0.078,0.067,0.078c0.663-0.012,0.989-0.018,1.637-0.031c0.036-0.001,0.056,0.025,0.061,0.077
					C257.931,325.95,257.919,326.014,257.89,326.089z"/>
				<path style="fill:#FFC530;" d="M261.001,321.927c-0.079,0.189-0.118,0.284-0.197,0.474c-0.031,0.076-0.045,0.14-0.042,0.192
					c0.004,0.052,0.023,0.079,0.06,0.079c0.594-0.005,0.89-0.008,1.485-0.016c0.037,0,0.056,0.026,0.06,0.077
					c0.003,0.053-0.011,0.115-0.043,0.19c-0.266,0.618-0.4,0.929-0.667,1.553c-0.032,0.075-0.072,0.139-0.12,0.193
					c-0.048,0.053-0.09,0.081-0.126,0.082c-0.585,0.014-0.876,0.021-1.46,0.034c-0.036,0.001-0.077,0.027-0.124,0.082
					c-0.047,0.053-0.086,0.118-0.116,0.194c-0.07,0.173-0.105,0.259-0.175,0.432c-0.031,0.076-0.044,0.139-0.04,0.191
					c0.003,0.053,0.023,0.078,0.058,0.077c0.662-0.015,0.992-0.023,1.657-0.04c0.035-0.001,0.054,0.025,0.057,0.077
					c0.002,0.053-0.013,0.118-0.045,0.193c-0.268,0.629-0.402,0.944-0.667,1.578c-0.032,0.076-0.071,0.142-0.118,0.195
					c-0.046,0.053-0.087,0.08-0.121,0.081c-1.05,0.003-1.565,0.005-2.618,0.008c-0.035,0-0.054-0.025-0.059-0.076
					c-0.005-0.05,0.007-0.112,0.034-0.185c1.137-2.988,1.833-4.719,3.089-7.728c0.031-0.073,0.069-0.135,0.117-0.186
					c0.047-0.05,0.089-0.076,0.126-0.075c1.128,0.019,1.69,0.024,2.817,0.029c0.037,0,0.057,0.026,0.062,0.077
					c0.004,0.051-0.009,0.113-0.04,0.185c-0.252,0.593-0.38,0.891-0.638,1.492c-0.032,0.074-0.072,0.137-0.12,0.188
					c-0.048,0.052-0.09,0.078-0.127,0.078c-0.686,0.004-1.028,0.005-1.713,0.005c-0.037,0-0.079,0.026-0.126,0.079
					C261.071,321.789,261.032,321.852,261.001,321.927z"/>
				<path style="fill:#FFC530;" d="M265.722,319.884c0.043-0.065,0.091-0.121,0.147-0.169c0.055-0.047,0.103-0.071,0.144-0.071
					c0.311-0.001,0.467-0.002,0.78-0.003c0.037,0,0.063,0.023,0.079,0.07c0.015,0.048,0.017,0.103,0.004,0.168
					c-0.593,2.946-0.997,4.32-1.768,7.6c-0.016,0.072-0.053,0.148-0.11,0.23c-0.057,0.081-0.117,0.122-0.178,0.123
					c-0.396,0.002-0.588,0.001-0.966,0.002c-0.04,0-0.067-0.026-0.078-0.079c-0.012-0.053-0.01-0.116,0.004-0.188
					c0.07-0.291,0.105-0.434,0.173-0.718c0.013-0.07,0.014-0.131,0.002-0.181c-0.012-0.05-0.037-0.075-0.073-0.074
					c-0.466,0.01-0.696,0.014-1.152,0.024c-0.039,0.001-0.088,0.027-0.144,0.078c-0.056,0.051-0.107,0.112-0.152,0.181
					c-0.183,0.281-0.274,0.422-0.456,0.705c-0.044,0.07-0.095,0.131-0.15,0.182c-0.056,0.052-0.101,0.077-0.135,0.077
					c-0.361,0.001-0.54,0.002-0.897,0.003c-0.017,0-0.032-0.007-0.044-0.023c-0.013-0.015-0.019-0.037-0.018-0.068
					c0.001-0.031,0.009-0.069,0.025-0.115c0.016-0.046,0.044-0.1,0.083-0.161C262.763,324.353,263.827,322.826,265.722,319.884z
					 M263.933,324.664c0.197-0.005,0.295-0.008,0.494-0.013c0.037-0.001,0.075-0.026,0.114-0.076
					c0.039-0.049,0.063-0.11,0.076-0.173c0.039-0.181,0.102-0.403,0.162-0.649c0.06-0.246,0.118-0.477,0.167-0.688
					c0.015-0.065,0.013-0.099-0.005-0.099c-0.019,0-0.05,0.034-0.095,0.101c-0.352,0.536-0.529,0.806-0.884,1.353
					c-0.045,0.067-0.071,0.126-0.078,0.174C263.875,324.642,263.892,324.665,263.933,324.664z"/>
				<path style="fill:#FFC530;" d="M266.181,327.819c-0.365,0.005-0.545,0.007-0.898,0.01c-0.04,0-0.061-0.028-0.064-0.084
					c-0.003-0.056,0.014-0.125,0.049-0.206c1.45-3.303,2.14-4.702,3.393-7.672c0.031-0.073,0.069-0.134,0.116-0.185
					c0.047-0.051,0.089-0.077,0.126-0.078c0.686-0.013,1.032-0.02,1.724-0.036c0.215-0.005,0.385,0.061,0.509,0.199
					c0.125,0.137,0.2,0.331,0.227,0.582c0.026,0.252,0.006,0.552-0.061,0.902c-0.067,0.351-0.184,0.74-0.355,1.169
					c-0.094,0.237-0.202,0.473-0.324,0.708c-0.122,0.235-0.253,0.458-0.391,0.668c-0.139,0.211-0.28,0.402-0.424,0.572
					c-0.143,0.17-0.294,0.312-0.429,0.428c-0.05,0.043-0.094,0.1-0.13,0.165c-0.036,0.065-0.055,0.127-0.055,0.188
					c-0.003,0.377,0.004,0.772,0.015,1.18c0.011,0.408,0.022,0.783,0.028,1.124c0.001,0.063-0.019,0.131-0.06,0.205
					c-0.042,0.075-0.084,0.113-0.126,0.113c-0.474,0.009-0.711,0.013-1.181,0.022c-0.042,0.001-0.079-0.02-0.109-0.063
					c-0.03-0.043-0.045-0.095-0.045-0.158c0.003-0.331,0.011-0.663,0.023-0.997c0.012-0.334,0.033-0.673,0.049-1.005
					c0.003-0.06-0.009-0.113-0.035-0.155c-0.025-0.042-0.058-0.062-0.097-0.062c-0.052,0-0.078,0-0.13,0
					c-0.039,0-0.084,0.026-0.135,0.081c-0.05,0.053-0.092,0.119-0.125,0.195c-0.323,0.746-0.486,1.124-0.817,1.9
					c-0.034,0.08-0.078,0.148-0.13,0.205C266.268,327.789,266.221,327.819,266.181,327.819z M268.423,323.281
					c0.242-0.002,0.364-0.003,0.608-0.006c0.046-0.001,0.101-0.018,0.165-0.052c0.064-0.034,0.132-0.086,0.204-0.157
					c0.072-0.071,0.143-0.158,0.212-0.262c0.07-0.103,0.134-0.225,0.192-0.366c0.031-0.074,0.06-0.16,0.088-0.259
					c0.028-0.099,0.045-0.194,0.051-0.285c0.006-0.092-0.005-0.168-0.034-0.228c-0.029-0.062-0.082-0.092-0.161-0.09
					c-0.239,0.004-0.358,0.006-0.596,0.01c-0.037,0.001-0.08,0.027-0.128,0.078c-0.048,0.052-0.088,0.114-0.119,0.187
					c-0.2,0.464-0.3,0.697-0.504,1.167c-0.032,0.074-0.046,0.136-0.042,0.188C268.364,323.255,268.385,323.281,268.423,323.281z"/>
				<path style="fill:#FFC530;" d="M276.501,319.695c-1.099,2.981-1.556,4.643-2.53,7.728c-0.024,0.075-0.058,0.14-0.102,0.192
					c-0.044,0.052-0.086,0.079-0.125,0.08c-0.35,0.003-0.528,0.005-0.889,0.01c-0.041,0.001-0.076-0.022-0.105-0.067
					c-0.03-0.045-0.047-0.097-0.051-0.158c-0.083-1.664-0.114-2.521-0.128-4.169c-0.001-0.06-0.017-0.085-0.047-0.073
					c-0.029,0.011-0.057,0.055-0.085,0.13c-0.584,1.615-0.873,2.437-1.465,4.091c-0.027,0.077-0.066,0.143-0.115,0.197
					c-0.049,0.054-0.095,0.082-0.138,0.083c-0.38,0.007-0.572,0.011-0.954,0.018c-0.043,0.001-0.069-0.026-0.078-0.08
					c-0.009-0.054,0.001-0.12,0.031-0.198c1.207-3.192,1.778-4.725,2.953-7.701c0.029-0.073,0.066-0.134,0.112-0.186
					c0.046-0.051,0.088-0.077,0.125-0.078c0.335-0.008,0.503-0.012,0.838-0.02c0.037-0.001,0.068,0.018,0.094,0.057
					c0.025,0.039,0.038,0.087,0.038,0.145c-0.031,1.582-0.029,2.399,0.015,4.063c0.003,0.061,0.018,0.088,0.046,0.079
					c0.027-0.008,0.054-0.049,0.079-0.125c0.542-1.628,0.815-2.439,1.395-3.997c0.027-0.073,0.063-0.134,0.108-0.186
					c0.045-0.051,0.086-0.077,0.123-0.078c0.329-0.007,0.492-0.01,0.819-0.016c0.037-0.001,0.058,0.024,0.065,0.074
					C276.538,319.562,276.528,319.622,276.501,319.695z"/>
				<path style="fill:#FFC530;" d="M275.76,327.69c-0.328-0.002-0.492-0.002-0.828-0.001c-0.041,0-0.065-0.026-0.074-0.078
					c-0.008-0.052-0.001-0.115,0.022-0.19c0.942-3.059,1.383-4.749,2.485-7.73c0.027-0.072,0.061-0.134,0.104-0.186
					c0.043-0.051,0.084-0.077,0.124-0.077c0.329-0.005,0.499-0.006,0.834-0.009c0.037,0,0.059,0.025,0.066,0.075
					c0.007,0.051-0.003,0.113-0.03,0.185c-1.103,2.988-1.565,4.689-2.492,7.743c-0.023,0.075-0.055,0.138-0.096,0.19
					C275.835,327.664,275.796,327.69,275.76,327.69z"/>
				<path style="fill:#FFC530;" d="M283.028,319.681c-1.134,3.029-1.775,4.73-2.722,7.82c-0.023,0.075-0.055,0.139-0.095,0.191
					c-0.04,0.052-0.078,0.077-0.112,0.077c-0.307-0.008-0.46-0.012-0.767-0.019c-0.035-0.001-0.064-0.025-0.089-0.07
					c-0.025-0.046-0.038-0.099-0.041-0.16c-0.041-1.666-0.034-2.533-0.041-4.226c-0.001-0.062-0.016-0.087-0.043-0.076
					c-0.027,0.011-0.053,0.055-0.079,0.132c-0.542,1.647-0.802,2.487-1.287,4.095c-0.023,0.075-0.054,0.139-0.095,0.19
					c-0.041,0.051-0.079,0.077-0.114,0.077c-0.316-0.006-0.476-0.008-0.796-0.012c-0.036-0.001-0.059-0.027-0.068-0.079
					c-0.009-0.052-0.003-0.116,0.02-0.191c0.926-3.064,1.415-4.767,2.519-7.764c0.027-0.073,0.063-0.134,0.108-0.186
					c0.045-0.051,0.086-0.076,0.123-0.077c0.334-0.001,0.5-0.002,0.833-0.002c0.037,0,0.068,0.02,0.094,0.06
					c0.026,0.04,0.039,0.089,0.039,0.148c-0.018,1.612-0.023,2.47-0.04,4.174c0,0.062,0.013,0.09,0.039,0.082
					c0.026-0.007,0.052-0.049,0.078-0.126c0.562-1.653,0.861-2.487,1.449-4.068c0.027-0.074,0.064-0.135,0.109-0.187
					c0.045-0.051,0.086-0.076,0.123-0.076c0.328,0.002,0.492,0.004,0.82,0.007c0.037,0,0.059,0.027,0.065,0.078
					C283.066,319.545,283.056,319.607,283.028,319.681z"/>
				<path style="fill:#FFC530;" d="M282.808,327.976c-0.283-0.005-0.514-0.122-0.689-0.353c-0.175-0.231-0.293-0.542-0.35-0.935
					c-0.057-0.393-0.049-0.856,0.025-1.389c0.074-0.533,0.219-1.102,0.434-1.703c0.215-0.602,0.477-1.165,0.783-1.69
					c0.307-0.526,0.63-0.978,0.97-1.361c0.339-0.383,0.68-0.682,1.023-0.898c0.343-0.216,0.662-0.32,0.958-0.313
					c0.407,0.01,0.701,0.184,0.876,0.526c0.175,0.341,0.243,0.811,0.197,1.412c-0.005,0.061-0.029,0.132-0.069,0.211
					c-0.041,0.079-0.084,0.137-0.128,0.174c-0.407,0.343-0.61,0.516-1.014,0.864c-0.045,0.038-0.083,0.051-0.115,0.038
					c-0.032-0.012-0.05-0.05-0.051-0.111c-0.004-0.29-0.037-0.529-0.11-0.708c-0.074-0.178-0.208-0.27-0.403-0.275
					c-0.14-0.003-0.294,0.053-0.462,0.169c-0.168,0.115-0.336,0.271-0.503,0.468c-0.167,0.197-0.327,0.428-0.478,0.691
					c-0.152,0.264-0.281,0.539-0.386,0.825c-0.108,0.293-0.183,0.571-0.227,0.835c-0.043,0.263-0.055,0.494-0.035,0.692
					c0.019,0.198,0.068,0.358,0.145,0.48c0.077,0.121,0.184,0.183,0.319,0.185c0.135,0.003,0.288-0.049,0.459-0.154
					s0.345-0.281,0.509-0.525c0.041-0.061,0.063-0.117,0.067-0.167c0.004-0.051-0.012-0.076-0.048-0.076
					c-0.249-0.004-0.373-0.007-0.621-0.011c-0.036-0.001-0.056-0.029-0.062-0.083c-0.005-0.055,0.006-0.12,0.034-0.198
					c0.202-0.55,0.306-0.826,0.515-1.376c0.029-0.077,0.067-0.143,0.113-0.196c0.046-0.054,0.087-0.079,0.123-0.079
					c0.751,0.016,1.129,0.025,1.894,0.041c0.037,0.001,0.06,0.026,0.068,0.076c0.008,0.051-0.004,0.118-0.033,0.203
					c-0.044,0.129-0.103,0.289-0.176,0.476c-0.074,0.188-0.155,0.382-0.243,0.581c-0.231,0.526-0.485,1.019-0.765,1.468
					c-0.28,0.449-0.563,0.836-0.853,1.161c-0.291,0.325-0.579,0.577-0.869,0.759C283.339,327.892,283.066,327.981,282.808,327.976z"
					/>
			</g>
		</g>
	</g>
</g>
</svg>
