<svg xmlns="http://www.w3.org/2000/svg" version="1.1" xmlns:xlink="http://www.w3.org/1999/xlink" xmlns:svgjs="http://svgjs.dev/svgjs" width="1500" height="1500" viewBox="0 0 1500 1500"><g transform="matrix(1,0,0,1,-0.7499999999998863,-0.7499999999998863)"><svg viewBox="0 0 280 280" data-background-color="#ffffff" preserveAspectRatio="xMidYMid meet" height="1500" width="1500" xmlns="http://www.w3.org/2000/svg" xmlns:xlink="http://www.w3.org/1999/xlink"><g id="tight-bounds" transform="matrix(1,0,0,1,0.13999999999998636,0.13999999999998636)"><svg viewBox="0 0 279.72 279.72" height="279.72" width="279.72"><g><svg viewBox="0 0 279.72 279.72" height="279.72" width="279.72"><g><svg viewBox="0 0 279.72 279.72" height="279.72" width="279.72"><g id="textblocktransform"><svg viewBox="0 0 279.72 279.72" height="279.72" width="279.72" id="textblock"><g><svg viewBox="0 0 279.72 279.72" height="279.72" width="279.72"><g transform="matrix(1,0,0,1,73.92936372216631,85.73736322998826)"><svg viewBox="0 0 131.8612725556674 108.2452735400235" height="108.2452735400235" width="131.8612725556674"><g id="icon-0"><svg xmlns="http://www.w3.org/2000/svg" xmlns:xlink="http://www.w3.org/1999/xlink" version="1.1" x="0" y="0" viewBox="-0.00103698943270647 0 99.99992021252514 82.09020364804655" enable-background="new 0 0 100 82.639" xml:space="preserve" id="jxe-0" width="131.8612725556674" height="108.2452735400235" class="icon-jxe-0" data-fill-palette-color="accent"><circle cx="50" cy="70.844" r="12" fill="#50a060" data-fill-palette-color="accent"></circle><path d="M49.997 0C31.91 0 14.91 7.037 2.139 19.822A7.28 7.28 0 0 0 2.139 30.133 7.27 7.27 0 0 0 7.295 32.271 7.27 7.27 0 0 0 12.455 30.133C22.476 20.108 35.81 14.582 49.997 14.582S77.518 20.108 87.549 30.133A7.28 7.28 0 0 0 97.863 30.133 7.29 7.29 0 0 0 97.863 19.822C85.078 7.034 68.084 0 49.997 0" fill="#50a060" data-fill-palette-color="accent"></path><path d="M49.997 28.96C37.728 28.96 26.208 33.739 17.55 42.402 14.704 45.249 14.704 49.872 17.556 52.724 20.407 55.556 25.026 55.565 27.877 52.713 33.776 46.8 41.634 43.556 50 43.556S66.239 46.812 72.147 52.713A7.28 7.28 0 0 0 77.31 54.854 7.25 7.25 0 0 0 82.464 52.713C85.313 49.864 85.313 45.243 82.464 42.402 73.788 33.738 62.256 28.96 49.997 28.96" fill="#50a060" data-fill-palette-color="accent"></path></svg></g></svg></g><g id="text-0"><path d="M22.876 111.027l-1.583-2.124c2.065-1.304 3.463-3.08 4.197-5.328v0c0.846-2.593 0.411-4.169-1.305-4.729v0c-0.786-0.256-1.604-0.031-2.453 0.678v0c-0.542 0.449-1.22 1.205-2.035 2.27v0l-1.029 1.336c-1.134 1.471-2.133 2.482-2.996 3.034v0c-1.061 0.675-2.235 0.802-3.522 0.383v0c-1.547-0.504-2.556-1.564-3.029-3.177v0c-0.4-1.331-0.332-2.819 0.204-4.463v0c0.778-2.385 2.191-4.358 4.239-5.919v0l1.615 2.058c-1.747 1.213-2.91 2.707-3.489 4.481v0c-0.256 0.786-0.332 1.502-0.226 2.148v0c0.156 1.021 0.672 1.675 1.549 1.961v0c0.695 0.227 1.342 0.096 1.94-0.392v0c0.374-0.309 1.033-1.062 1.976-2.256v0l1.28-1.61c1.175-1.465 2.245-2.485 3.21-3.062v0c1.182-0.715 2.41-0.864 3.684-0.449v0c1.657 0.54 2.73 1.692 3.219 3.455v0c0.374 1.344 0.21 3.092-0.491 5.243v0c-0.894 2.742-2.546 4.896-4.955 6.462z" fill="#50a060" data-fill-palette-color="primary"></path><path d="M11.964 82.577l-3.086-1.413 1.422-3.104 3.085 1.413zM32.345 91.607l-16.705-7.651 1.187-2.591 16.705 7.65z" fill="#50a060" data-fill-palette-color="primary"></path><path d="M28.792 61.881l1.195-1.853 11.288 7.278c2.172 1.4 3.448 3.003 3.829 4.81v0c0.405 1.895-0.104 3.946-1.527 6.153v0c-1.622 2.516-3.657 4.209-6.105 5.079v0l-0.973-2.275c2.034-0.632 3.729-2 5.084-4.102v0c1.148-1.781 1.359-3.414 0.633-4.899v0c-0.397-0.809-1.056-1.51-1.975-2.102v0l-1.749-1.128c0.305 0.839 0.397 1.744 0.275 2.715v0c-0.149 1.165-0.518 2.204-1.107 3.117v0c-0.93 1.442-2.138 2.497-3.626 3.164v0c-2.374 1.072-4.668 0.895-6.879-0.531v0c-1.959-1.263-3.045-3.085-3.258-5.468v0c-0.158-1.875 0.284-3.619 1.325-5.233v0c1.148-1.781 2.704-2.933 4.668-3.456v0zM36.062 67.275l-3.645-2.35c-2.157-0.048-3.851 0.884-5.085 2.797v0c-0.589 0.913-0.897 1.858-0.923 2.833v0c-0.052 1.796 0.726 3.213 2.334 4.25v0c1.057 0.681 2.194 0.943 3.411 0.784v0c1.518-0.184 2.725-0.972 3.621-2.362v0c0.933-1.448 1.203-2.982 0.808-4.603v0c-0.1-0.438-0.273-0.888-0.521-1.349z" fill="#50a060" data-fill-palette-color="primary"></path><path d="M47.002 64.911l-0.548-2.591c2.421-0.319 4.435-1.345 6.044-3.079v0c1.854-2 2.12-3.613 0.797-4.84v0c-0.606-0.562-1.444-0.7-2.512-0.413v0c-0.68 0.18-1.613 0.583-2.798 1.208v0l-1.494 0.782c-1.646 0.86-2.977 1.36-3.992 1.5v0c-1.246 0.168-2.366-0.208-3.358-1.129v0c-1.193-1.106-1.666-2.491-1.419-4.154v0c0.195-1.376 0.88-2.698 2.056-3.967v0c1.706-1.839 3.815-3.039 6.328-3.597v0l0.604 2.545c-2.095 0.369-3.777 1.238-5.045 2.606v0c-0.562 0.606-0.931 1.225-1.106 1.856v0c-0.287 0.993-0.092 1.803 0.585 2.43v0c0.536 0.497 1.178 0.65 1.925 0.457v0c0.469-0.124 1.383-0.531 2.74-1.22v0l1.837-0.926c1.681-0.837 3.08-1.316 4.198-1.435v0c1.373-0.153 2.55 0.226 3.532 1.137v0c1.278 1.185 1.77 2.681 1.475 4.486v0c-0.224 1.377-1.105 2.895-2.643 4.554v0c-1.961 2.115-4.364 3.379-7.206 3.79z" fill="#50a060" data-fill-palette-color="primary"></path><path d="M65.131 46.17l-14.841-7.5 2.572-1.971 8.31 4.457c1.215 0.653 2.381 1.371 3.497 2.152v0l0.073-0.056-0.082-0.325c-0.475-1.789-0.784-3.007-0.927-3.656v0l-2.049-9.332 2.548-1.952 3.846 19.451c0.317 1.617 0.196 2.959-0.364 4.025v0c-0.405 0.775-1.093 1.535-2.064 2.279v0l-0.92 0.705-2.107-1.486 1.229-0.941c0.803-0.615 1.325-1.209 1.567-1.782v0c0.257-0.575 0.294-1.302 0.113-2.179v0z" fill="#50a060" data-fill-palette-color="primary"></path><path d="M76.628 39.419l0.306-2.631c2.396 0.468 4.633 0.136 6.709-0.996v0c2.394-1.306 3.16-2.751 2.296-4.335v0c-0.396-0.726-1.146-1.123-2.25-1.191v0c-0.702-0.045-1.715 0.04-3.037 0.255v0l-1.666 0.266c-1.834 0.292-3.255 0.342-4.261 0.152v0c-1.235-0.237-2.177-0.95-2.825-2.139v0c-0.779-1.428-0.787-2.892-0.023-4.39v0c0.623-1.243 1.693-2.278 3.211-3.106v0c2.202-1.201 4.584-1.667 7.145-1.397v0l-0.238 2.605c-2.104-0.317-3.974-0.028-5.613 0.866v0c-0.726 0.396-1.272 0.865-1.638 1.407v0c-0.588 0.85-0.66 1.68-0.219 2.49v0c0.35 0.642 0.91 0.991 1.68 1.046v0c0.484 0.032 1.48-0.063 2.986-0.285v0l2.036-0.293c1.86-0.259 3.338-0.267 4.436-0.025v0c1.35 0.291 2.346 1.025 2.988 2.201v0c0.835 1.53 0.825 3.104-0.029 4.722v0c-0.65 1.234-1.969 2.393-3.956 3.477v0c-2.532 1.381-5.212 1.815-8.038 1.301z" fill="#50a060" data-fill-palette-color="primary"></path><path d="M101.291 6.827l-0.962-3.255 3.275-0.967 0.962 3.255zM107.873 28.125l-5.206-17.62 2.733-0.808 5.207 17.62z" fill="#50a060" data-fill-palette-color="primary"></path><path d="M115.179 7.771l2.739-0.4 0.477 3.267c0.744-1.338 1.673-2.406 2.786-3.205v0c1.031-0.745 2.118-1.2 3.261-1.367v0c1.508-0.22 2.851-0.036 4.028 0.552v0c1.788 0.893 2.888 2.746 3.299 5.559v0l1.678 11.495-2.79 0.407-1.628-11.15c-0.481-3.294-2.013-4.752-4.597-4.375v0c-0.988 0.144-1.907 0.565-2.758 1.263v0c-1.286 1.031-2.186 2.419-2.698 4.165v0l1.687 11.556-2.83 0.413z" fill="#50a060" data-fill-palette-color="primary"></path><path d="M142.385 1.373l2.81-1.373-0.168 5.637 5.678 0.169-0.065 2.173-5.678-0.17-0.341 11.427c-0.026 0.875 0.03 1.502 0.17 1.883v0c0.24 0.664 0.763 1.008 1.569 1.031v0c1.052 0.031 2.119-0.303 3.2-1.002v0l0.738 2.053c-1.38 0.862-2.869 1.268-4.467 1.221v0c-2.753-0.082-4.083-1.715-3.988-4.899v0l0.352-11.796-4.335-0.13 0.065-2.172 4.335 0.129z" fill="#50a060" data-fill-palette-color="primary"></path><path d="M172.86 18.212l-0.143 0.797-13.939-2.491c-0.298 1.898-0.123 3.488 0.523 4.77v0c0.878 1.733 2.41 2.795 4.596 3.186v0c2.301 0.411 4.414-0.242 6.34-1.96v0l1.406 2.157c-2.411 2.027-5.184 2.761-8.32 2.2v0c-3.122-0.558-5.331-2.05-6.626-4.476v0c-1.004-1.881-1.284-4.062-0.841-6.545v0c0.381-2.133 1.185-3.909 2.411-5.329v0c1.189-1.371 2.635-2.272 4.337-2.703v0c1.193-0.301 2.404-0.341 3.636-0.121v0c2.88 0.515 4.885 2.057 6.016 4.627v0c0.786 1.779 0.987 3.742 0.604 5.888zM159.282 14.4l10.88 1.945c0.15-1.501-0.102-2.792-0.755-3.874v0c-0.806-1.359-2.016-2.183-3.631-2.472v0c-1.178-0.21-2.318-0.029-3.42 0.545v0c-1.453 0.747-2.478 2.033-3.074 3.856z" fill="#50a060" data-fill-palette-color="primary"></path><path d="M185.411 13.271l-1.826 4.749 0.116 0.041c2.437-3.05 4.927-4.13 7.468-3.24v0c0.793 0.278 1.474 0.694 2.041 1.247v0l-1.697 2.176c-0.42-0.393-0.965-0.708-1.636-0.942v0c-2.426-0.85-4.843 0.582-7.251 4.293v0l-3.173 9.057-2.699-0.945 6.074-17.341z" fill="#50a060" data-fill-palette-color="primary"></path><path d="M204.274 29.349l1.878 0.989 0.277-0.526c0.682-1.294 0.836-2.445 0.463-3.453v0c-0.341-0.921-1.183-1.736-2.526-2.443v0c-1.972-1.038-4.116-1.36-6.433-0.966v0l-0.161-2.379c2.682-0.442 5.256-0.013 7.724 1.287v0c2.244 1.182 3.616 2.677 4.116 4.485v0c0.412 1.507 0.155 3.137-0.769 4.891v0l-3.077 5.842c-1.086 2.062-1.613 3.848-1.58 5.356v0l-2.423-1.276c0.041-0.929 0.284-2.021 0.73-3.277v0l-0.082-0.043c-0.995 0.642-2.159 1.026-3.491 1.15v0c-1.366 0.13-2.794-0.197-4.281-0.98v0c-1.548-0.815-2.594-1.954-3.139-3.414v0c-0.561-1.531-0.446-3.047 0.344-4.547v0c0.943-1.79 2.462-2.775 4.557-2.954v0c2.074-0.167 4.698 0.585 7.873 2.258zM204.217 34.012l0.931-1.769-1.732-0.913c-4.663-2.456-7.651-2.438-8.963 0.054v0c-0.427 0.81-0.531 1.617-0.313 2.42v0c0.276 0.957 0.947 1.715 2.011 2.276v0c1.379 0.726 2.819 0.925 4.322 0.596v0c1.76-0.379 3.008-1.267 3.744-2.664z" fill="#50a060" data-fill-palette-color="primary"></path><path d="M222.292 50.324l0.29 2.587c-2.931 0.667-5.715-0.021-8.35-2.066v0c-2.085-1.617-3.283-3.568-3.596-5.853v0c-0.353-2.523 0.409-4.994 2.286-7.413v0c1.395-1.798 3.054-3.012 4.977-3.639v0c1.764-0.578 3.529-0.58 5.298-0.004v0c0.97 0.311 1.889 0.804 2.759 1.478v0c2.193 1.701 3.561 3.879 4.106 6.533v0l-2.45 0.734c-0.355-2.23-1.356-3.984-3.003-5.263v0c-1.604-1.244-3.341-1.593-5.211-1.044v0c-1.533 0.437-2.909 1.442-4.128 3.013v0c-0.98 1.264-1.568 2.551-1.763 3.862v0c-0.207 1.405 0.024 2.701 0.695 3.887v0c0.401 0.709 0.945 1.33 1.631 1.862v0c1.874 1.454 4.027 1.896 6.459 1.326z" fill="#50a060" data-fill-palette-color="primary"></path><path d="M241.718 44.626l2.957 1.018-4.106 3.865 3.893 4.136-1.583 1.49-3.893-4.136-8.324 7.836c-0.637 0.6-1.041 1.083-1.212 1.45v0c-0.3 0.639-0.173 1.252 0.38 1.839v0c0.722 0.766 1.712 1.285 2.97 1.555v0l-0.93 1.974c-1.585-0.367-2.925-1.133-4.021-2.297v0c-1.888-2.006-1.672-4.1 0.647-6.284v0l8.593-8.089-2.973-3.158 1.583-1.49 2.972 3.158z" fill="#50a060" data-fill-palette-color="primary"></path><path d="M252.389 57.256l2.678-2.084 2.097 2.694-2.679 2.084zM234.967 71.163l14.501-11.283 1.75 2.249-14.501 11.283z" fill="#50a060" data-fill-palette-color="primary"></path><path d="M242.712 84.023l12.583-15.748 1.575 2.796-7.66 8.986-0.273 0.33c-1.048 1.218-1.905 2.155-2.57 2.813v0l0.061 0.107c0.84-0.222 2.125-0.475 3.855-0.759v0l0.311-0.034 11.655-1.892 1.574 2.796-19.984 2.606z" fill="#50a060" data-fill-palette-color="primary"></path><path d="M263.957 107.866l-0.759 0.282-4.945-13.267c-1.785 0.709-3.066 1.668-3.841 2.876v0c-1.046 1.637-1.181 3.497-0.405 5.578v0c0.816 2.19 2.454 3.677 4.913 4.461v0l-1.142 2.307c-2.972-1.044-5.014-3.059-6.127-6.043v0c-1.108-2.972-0.947-5.632 0.483-7.982v0c1.108-1.821 2.844-3.172 5.208-4.053v0c2.03-0.757 3.968-0.969 5.814-0.635v0c1.785 0.327 3.296 1.113 4.534 2.358v0c0.865 0.874 1.517 1.897 1.954 3.069v0c1.022 2.741 0.714 5.252-0.924 7.533v0c-1.132 1.582-2.72 2.753-4.763 3.515zM260.333 94.237l3.86 10.356c1.369-0.634 2.352-1.508 2.951-2.621v0c0.76-1.385 0.854-2.846 0.282-4.383v0c-0.418-1.121-1.154-2.01-2.209-2.667v0c-1.382-0.871-3.01-1.099-4.884-0.685z" fill="#50a060" data-fill-palette-color="primary"></path><path d="M1.283 143.652c0-5.255 4.26-9.515 9.515-9.514 5.255 0 9.515 4.26 9.514 9.514 0 5.255-4.26 9.515-9.514 9.515-5.255 0-9.515-4.26-9.515-9.515z" fill="#50a060" data-fill-palette-color="primary"></path><path d="M259.408 143.652c0-5.255 4.26-9.515 9.514-9.514 5.255 0 9.515 4.26 9.515 9.514 0 5.255-4.26 9.515-9.515 9.515-5.255 0-9.515-4.26-9.514-9.515z" fill="#50a060" data-fill-palette-color="primary"></path></g><g id="text-1"><path d="M29.812 190.481l0.623 1.813-16.706 1.235-0.51-1.484 7.42-5.598c0.957-0.727 1.979-1.382 3.065-1.965v0l-0.023-0.068c-1.234 0.215-2.442 0.33-3.622 0.346v0l-9.294 0.149-0.514-1.493 13.936-9.292 0.623 1.813-7.947 5.14c-0.973 0.638-2.168 1.378-3.585 2.22v0l0.027 0.077c1.226-0.154 2.584-0.253 4.073-0.294v0l8.451-0.239 0.537 1.561-6.804 5.028c-1.155 0.845-2.287 1.6-3.396 2.263v0l0.027 0.078c1.356-0.177 2.753-0.329 4.191-0.455v0z" fill="#50a060" data-fill-palette-color="secondary"></path><path d="M17.116 201.406l15.141-7.453 0.793 1.61-6.559 3.229c0.879 0.161 1.657 0.472 2.332 0.931v0c0.7 0.493 1.221 1.087 1.562 1.78v0c0.655 1.331 0.689 2.529 0.102 3.596v0c-0.43 0.783-1.215 1.455-2.356 2.016v0l-6.605 3.251-0.802-1.628 6.403-3.151c0.889-0.438 1.484-0.909 1.783-1.415v0c0.383-0.646 0.371-1.382-0.036-2.211v0c-0.281-0.57-0.721-1.047-1.321-1.43v0c-0.868-0.556-1.869-0.817-3.003-0.784v0l-6.642 3.269z" fill="#50a060" data-fill-palette-color="secondary"></path><path d="M35.512 220.792l-0.429 0.281-4.916-7.505c-1.009 0.693-1.666 1.467-1.972 2.322v0c-0.419 1.157-0.243 2.324 0.529 3.502v0c0.813 1.241 2.032 1.929 3.657 2.066v0l-0.374 1.581c-1.987-0.227-3.533-1.183-4.638-2.87v0c-1.101-1.681-1.376-3.348-0.824-5.001v0c0.429-1.278 1.313-2.355 2.651-3.231v0c1.149-0.753 2.319-1.156 3.511-1.209v0c1.151-0.051 2.193 0.222 3.124 0.821v0c0.658 0.419 1.205 0.96 1.639 1.623v0c1.015 1.55 1.178 3.146 0.491 4.79v0c-0.477 1.13-1.294 2.073-2.449 2.83zM31.361 212.884l3.838 5.858c0.754-0.584 1.241-1.262 1.461-2.036v0c0.275-0.965 0.128-1.882-0.442-2.75v0c-0.416-0.635-0.997-1.079-1.743-1.334v0c-0.979-0.347-2.017-0.26-3.114 0.262z" fill="#50a060" data-fill-palette-color="secondary"></path><path d="M43.949 222.558l-2.563 1.951 0.051 0.063c2.327-0.843 4.03-0.602 5.108 0.725v0c0.336 0.414 0.567 0.865 0.691 1.354v0l-1.645 0.61c-0.1-0.35-0.29-0.698-0.57-1.043v0c-1.03-1.268-2.81-1.301-5.34-0.099v0l-4.718 3.834-1.144-1.408 9.03-7.34z" fill="#50a060" data-fill-palette-color="secondary"></path><path d="M52.629 239.885l-0.365 0.36-6.301-6.387c-0.852 0.879-1.344 1.767-1.475 2.665v0c-0.182 1.217 0.221 2.326 1.21 3.329v0c1.042 1.056 2.373 1.49 3.993 1.304v0l-0.055 1.623c-1.993 0.17-3.697-0.463-5.112-1.898v0c-1.411-1.431-2.01-3.01-1.795-4.739v0c0.169-1.338 0.822-2.568 1.961-3.692v0c0.978-0.965 2.046-1.591 3.203-1.878v0c1.118-0.278 2.193-0.215 3.225 0.189v0c0.728 0.28 1.37 0.703 1.927 1.268v0c1.301 1.319 1.776 2.852 1.426 4.599v0c-0.245 1.202-0.859 2.288-1.842 3.257zM46.999 232.952l4.918 4.985c0.624-0.721 0.967-1.482 1.031-2.284v0c0.079-1-0.246-1.87-0.976-2.609v0c-0.533-0.54-1.19-0.861-1.973-0.964v0c-1.029-0.147-2.029 0.143-3 0.872z" fill="#50a060" data-fill-palette-color="secondary"></path><path d="M59.798 250.642l1.641-0.42c0.245 2.043 1.229 3.664 2.952 4.861v0c0.887 0.616 1.706 0.911 2.457 0.884v0c0.848-0.035 1.52-0.409 2.016-1.122v0c0.495-0.713 0.623-1.477 0.383-2.293v0c-0.207-0.66-0.73-1.56-1.569-2.701v0l-0.654-0.892c-0.813-1.106-1.329-2.01-1.549-2.712v0c-0.33-1.07-0.163-2.082 0.5-3.037v0c0.741-1.066 1.702-1.652 2.881-1.755v0c1.252-0.112 2.531 0.286 3.839 1.195v0c1.605 1.116 2.685 2.586 3.24 4.411v0l-1.576 0.578c-0.364-1.56-1.214-2.804-2.55-3.732v0c-0.887-0.616-1.708-0.884-2.464-0.802v0c-0.678 0.078-1.238 0.434-1.679 1.068v0c-0.363 0.522-0.48 1.086-0.352 1.692v0c0.146 0.676 0.635 1.565 1.467 2.667v0l0.733 0.959c0.991 1.305 1.569 2.443 1.734 3.415v0c0.188 1.071-0.042 2.073-0.69 3.005v0c-0.823 1.184-1.921 1.799-3.292 1.844v0c-1.192 0.038-2.469-0.418-3.833-1.365v0c-2.161-1.502-3.372-3.418-3.635-5.748z" fill="#50a060" data-fill-palette-color="secondary"></path><path d="M80.015 249.896l1.072-1.855 1.873 1.083-1.073 1.855zM73.092 262.214l5.826-10.074 1.571 0.909-5.826 10.074z" fill="#50a060" data-fill-palette-color="secondary"></path><path d="M92.589 258.804l1.266 0.584-3.567 7.727c-0.685 1.483-1.574 2.424-2.669 2.822v0c-1.158 0.422-2.491 0.284-3.999-0.412v0c-1.719-0.793-2.962-1.917-3.73-3.37v0l1.337-0.817c0.58 1.224 1.589 2.168 3.029 2.833v0c1.216 0.561 2.259 0.546 3.128-0.048v0c0.47-0.317 0.851-0.793 1.143-1.425v0l0.555-1.201c-0.493 0.269-1.052 0.411-1.675 0.424v0c-0.749 0.008-1.434-0.131-2.055-0.418v0c-0.987-0.455-1.755-1.123-2.306-2.002v0c-0.885-1.395-0.977-2.849-0.278-4.363v0c0.619-1.341 1.666-2.182 3.142-2.525v0c1.163-0.269 2.297-0.148 3.401 0.362v0c1.223 0.564 2.083 1.44 2.582 2.626v0zM89.847 263.84l1.151-2.495c-0.156-1.359-0.888-2.341-2.198-2.946v0c-0.627-0.289-1.246-0.398-1.859-0.327v0c-1.137 0.13-1.959 0.745-2.465 1.843v0c-0.335 0.726-0.399 1.461-0.193 2.204v0c0.259 0.94 0.863 1.629 1.813 2.067v0c0.993 0.458 1.979 0.492 2.957 0.1v0c0.266-0.103 0.53-0.252 0.794-0.446z" fill="#50a060" data-fill-palette-color="secondary"></path><path d="M98.213 260.909l1.666 0.549-0.655 1.986c0.807-0.547 1.635-0.89 2.487-1.026v0c0.799-0.132 1.546-0.084 2.241 0.144v0c0.915 0.302 1.623 0.787 2.122 1.455v0c0.766 1.015 0.868 2.377 0.306 4.085v0l-2.305 6.992-1.704-0.562 2.234-6.778c0.661-2.006 0.206-3.268-1.365-3.785v0c-0.604-0.199-1.245-0.219-1.923-0.062v0c-1.022 0.217-1.923 0.748-2.705 1.592v0l-2.317 7.031-1.724-0.568z" fill="#50a060" data-fill-palette-color="secondary"></path><path d="M117.396 270.394l1.317 0.263 0.074-0.373c0.18-0.905 0.067-1.631-0.339-2.179v0c-0.374-0.5-1.034-0.844-1.979-1.032v0c-1.381-0.275-2.74-0.083-4.078 0.578v0l-0.524-1.412c1.552-0.757 3.193-0.963 4.923-0.618v0c1.575 0.314 2.677 0.976 3.305 1.986v0c0.522 0.843 0.66 1.881 0.414 3.115v0l-0.818 4.102c-0.289 1.448-0.286 2.626 0.006 3.535v0l-1.699-0.338c-0.144-0.572-0.195-1.279-0.152-2.122v0l-0.06-0.012c-0.484 0.573-1.119 1.014-1.906 1.325v0c-0.811 0.326-1.739 0.385-2.785 0.176v0c-1.086-0.216-1.923-0.718-2.512-1.504v0c-0.621-0.835-0.828-1.775-0.619-2.821v0c0.251-1.26 0.997-2.136 2.238-2.627v0c1.23-0.473 2.962-0.487 5.194-0.042zM118.198 273.241l0.249-1.247-1.217-0.243c-3.278-0.653-5.092-0.102-5.442 1.655v0c-0.112 0.563-0.029 1.071 0.25 1.524v0c0.341 0.528 0.887 0.867 1.637 1.016v0c0.965 0.192 1.875 0.053 2.729-0.418v0c1.001-0.546 1.599-1.309 1.794-2.287z" fill="#50a060" data-fill-palette-color="secondary"></path><path d="M125.227 277.368l1.7-15.141 1.803 0.202-1.676 14.927c-0.028 0.251 0.077 0.39 0.314 0.417v0l1.529 0.172-0.359 1.445-1.823-0.205c-1.114-0.125-1.61-0.731-1.488-1.817z" fill="#50a060" data-fill-palette-color="secondary"></path><path d="M141.055 268.103l1.699-0.1 0.118 2.006c0.29-0.784 0.787-1.405 1.493-1.864v0c0.521-0.339 1.058-0.524 1.611-0.556v0c1.638-0.096 2.756 0.65 3.356 2.238v0c0.249-0.651 0.585-1.181 1.006-1.59v0c0.661-0.641 1.428-0.987 2.301-1.038v0c1.249-0.073 2.25 0.372 3.005 1.334v0c0.503 0.635 0.793 1.617 0.871 2.948v0l0.43 7.349-1.75 0.103-0.428-7.309c-0.057-0.969-0.291-1.695-0.702-2.177v0c-0.427-0.509-0.982-0.744-1.664-0.704v0c-0.635 0.037-1.211 0.362-1.73 0.974v0c-0.468 0.541-0.766 1.188-0.893 1.942v0l0.442 7.565-1.73 0.101-0.433-7.411c-0.05-0.86-0.264-1.525-0.641-1.996v0c-0.451-0.562-1.02-0.824-1.709-0.783v0c-0.682 0.04-1.287 0.421-1.813 1.143v0c-0.4 0.544-0.672 1.214-0.817 2.01v0l0.429 7.328-1.771 0.104z" fill="#50a060" data-fill-palette-color="secondary"></path><path d="M171.735 269.751l0.101 0.503-8.798 1.759c0.267 1.194 0.739 2.093 1.418 2.696v0c0.917 0.82 2.066 1.093 3.446 0.817v0c1.454-0.291 2.548-1.165 3.282-2.622v0l1.327 0.937c-0.952 1.759-2.416 2.836-4.394 3.231v0c-1.971 0.394-3.619 0.027-4.946-1.102v0c-1.025-0.875-1.695-2.097-2.009-3.666v0c-0.269-1.347-0.206-2.583 0.189-3.708v0c0.382-1.087 1.025-1.951 1.929-2.591v0c0.634-0.454 1.34-0.759 2.117-0.915v0c1.816-0.363 3.359 0.081 4.627 1.333v0c0.87 0.865 1.44 1.974 1.711 3.328zM162.849 270.65l6.867-1.374c-0.26-0.917-0.708-1.622-1.343-2.115v0c-0.792-0.615-1.698-0.821-2.716-0.617v0c-0.744 0.149-1.373 0.522-1.889 1.12v0c-0.688 0.779-0.994 1.774-0.919 2.986z" fill="#50a060" data-fill-palette-color="secondary"></path><path d="M186.223 265.143l0.159 0.487-8.53 2.781c0.405 1.155 0.98 1.992 1.725 2.511v0c1.007 0.707 2.18 0.842 3.518 0.406v0c1.41-0.46 2.394-1.456 2.951-2.989v0l1.428 0.774c-0.739 1.858-2.066 3.1-3.983 3.725v0c-1.911 0.623-3.591 0.452-5.042-0.513v0c-1.121-0.749-1.93-1.884-2.426-3.404v0c-0.426-1.306-0.508-2.541-0.247-3.705v0c0.252-1.125 0.789-2.058 1.61-2.8v0c0.576-0.526 1.241-0.912 1.995-1.157v0c1.761-0.574 3.345-0.314 4.752 0.78v0c0.966 0.756 1.662 1.791 2.09 3.104zM177.504 267.079l6.658-2.17c-0.366-0.88-0.893-1.528-1.582-1.943v0c-0.859-0.518-1.782-0.616-2.77-0.294v0c-0.721 0.235-1.303 0.68-1.744 1.334v0c-0.591 0.854-0.779 1.879-0.562 3.073z" fill="#50a060" data-fill-palette-color="secondary"></path><path d="M188.473 255.278l1.221-1.56 1.467 3.263 3.292-1.479 0.563 1.253-3.291 1.479 2.972 6.612c0.227 0.505 0.432 0.844 0.614 1.017v0c0.327 0.31 0.721 0.362 1.183 0.154v0c0.611-0.275 1.128-0.758 1.551-1.451v0l0.984 0.963c-0.547 0.868-1.281 1.509-2.204 1.924v0c-1.596 0.718-2.807 0.157-3.635-1.682v0l-3.064-6.818-2.507 1.127-0.563-1.253 2.506-1.127z" fill="#50a060" data-fill-palette-color="secondary"></path><path d="M202.118 263.045l0.167-1.67c1.528 0.278 2.945 0.051 4.251-0.682v0c1.502-0.844 1.973-1.763 1.414-2.759v0c-0.258-0.459-0.735-0.708-1.432-0.748v0c-0.451-0.021-1.094 0.042-1.928 0.189v0l-1.052 0.18c-1.156 0.203-2.055 0.249-2.697 0.139v0c-0.784-0.14-1.387-0.585-1.809-1.336v0c-0.506-0.9-0.521-1.828-0.047-2.784v0c0.387-0.79 1.058-1.453 2.011-1.988v0c1.389-0.78 2.893-1.096 4.513-0.948v0l-0.132 1.65c-1.334-0.184-2.517 0.014-3.547 0.593v0c-0.459 0.258-0.799 0.559-1.022 0.903v0c-0.369 0.544-0.409 1.073-0.121 1.585v0c0.228 0.405 0.584 0.621 1.069 0.647v0c0.31 0.022 0.939-0.045 1.886-0.202v0l1.299-0.2c1.17-0.179 2.104-0.198 2.802-0.057v0c0.859 0.176 1.496 0.633 1.912 1.372v0c0.542 0.965 0.551 1.964 0.025 2.997v0c-0.406 0.785-1.235 1.529-2.486 2.231v0c-1.591 0.894-3.283 1.19-5.076 0.888z" fill="#50a060" data-fill-palette-color="secondary"></path><path d="M220.096 250.507l0.045-1.693c2.032 0.324 3.86-0.179 5.484-1.508v0c0.836-0.684 1.343-1.391 1.523-2.122v0c0.199-0.825 0.023-1.574-0.527-2.245v0c-0.55-0.672-1.25-1.004-2.101-0.997v0c-0.692 0.018-1.701 0.275-3.027 0.769v0l-1.037 0.385c-1.286 0.479-2.297 0.728-3.032 0.747v0c-1.12 0.024-2.047-0.413-2.784-1.312v0c-0.823-1.005-1.123-2.089-0.9-3.252v0c0.235-1.235 0.968-2.356 2.201-3.365v0c1.513-1.238 3.223-1.874 5.13-1.908v0l0.125 1.674c-1.6-0.077-3.03 0.4-4.289 1.43v0c-0.836 0.684-1.318 1.401-1.445 2.151v0c-0.111 0.674 0.078 1.31 0.567 1.907v0c0.403 0.492 0.913 0.759 1.53 0.802v0c0.69 0.045 1.679-0.182 2.968-0.681v0l1.123-0.442c1.526-0.596 2.78-0.84 3.759-0.732v0c1.082 0.113 1.982 0.608 2.701 1.486v0c0.914 1.116 1.204 2.34 0.872 3.672v0c-0.29 1.156-1.078 2.26-2.363 3.312v0c-2.036 1.667-4.211 2.308-6.523 1.922z" fill="#50a060" data-fill-palette-color="secondary"></path><path d="M235.499 237.02l-10.003-3.286 1.423-1.477 5.635 1.997c0.818 0.294 1.612 0.632 2.383 1.014v0l0.036-0.037-0.069-0.194c-0.47-1.079-0.781-1.815-0.933-2.209v0l-2.165-5.644 1.408-1.462 4.253 11.812c0.352 0.984 0.404 1.837 0.157 2.557v0c-0.184 0.526-0.543 1.066-1.08 1.623v0l-0.512 0.531-1.464-0.726 0.683-0.709c0.446-0.463 0.718-0.884 0.818-1.263v0c0.109-0.389 0.061-0.847-0.142-1.375v0z" fill="#50a060" data-fill-palette-color="secondary"></path><path d="M242.674 230.301l-0.483-1.607c1.519-0.326 2.741-1.077 3.667-2.253v0c1.066-1.353 1.151-2.383 0.254-3.09v0c-0.413-0.326-0.95-0.374-1.608-0.145v0c-0.425 0.153-0.995 0.456-1.71 0.912v0l-0.904 0.567c-0.991 0.629-1.805 1.015-2.44 1.158v0c-0.778 0.17-1.505-0.011-2.182-0.544v0c-0.811-0.639-1.18-1.491-1.106-2.555v0c0.056-0.878 0.423-1.746 1.1-2.606v0c0.986-1.251 2.255-2.117 3.809-2.598v0l0.508 1.575c-1.303 0.34-2.32 0.974-3.052 1.902v0c-0.326 0.413-0.525 0.822-0.599 1.225v0c-0.133 0.644 0.032 1.147 0.493 1.511v0c0.365 0.288 0.777 0.351 1.234 0.19v0c0.295-0.098 0.85-0.4 1.667-0.906v0l1.124-0.681c1.013-0.612 1.869-0.986 2.568-1.123v0c0.861-0.166 1.625 0.014 2.291 0.539v0c0.87 0.685 1.259 1.605 1.167 2.759v0c-0.076 0.88-0.558 1.884-1.446 3.012v0c-1.129 1.434-2.58 2.353-4.352 2.758z" fill="#50a060" data-fill-palette-color="secondary"></path><path d="M241.13 210.707l0.17-1.974 3.012 1.932 1.949-3.038 1.156 0.742-1.949 3.038 6.102 3.914c0.466 0.299 0.823 0.471 1.07 0.516v0c0.443 0.081 0.801-0.091 1.074-0.517v0c0.362-0.564 0.531-1.251 0.507-2.062v0l1.35 0.269c0.016 1.026-0.249 1.964-0.795 2.815v0c-0.945 1.473-2.266 1.665-3.963 0.577v0l-6.291-4.036-1.484 2.313-1.156-0.742 1.483-2.313z" fill="#50a060" data-fill-palette-color="secondary"></path><path d="M257.686 197.671l0.456 0.235-4.111 7.974c1.1 0.536 2.097 0.727 2.992 0.573v0c1.213-0.205 2.142-0.934 2.788-2.185v0c0.68-1.318 0.679-2.719-0.003-4.2v0l1.56-0.454c0.781 1.841 0.71 3.657-0.214 5.45v0c-0.921 1.786-2.236 2.846-3.946 3.18v0c-1.324 0.256-2.697 0.017-4.119-0.716v0c-1.221-0.63-2.148-1.45-2.78-2.46v0c-0.612-0.977-0.886-2.018-0.824-3.124v0c0.04-0.779 0.242-1.521 0.605-2.225v0c0.849-1.646 2.158-2.575 3.928-2.786v0c1.218-0.141 2.441 0.105 3.669 0.738zM252.848 205.177l3.209-6.224c-0.879-0.369-1.709-0.458-2.492-0.269v0c-0.975 0.236-1.701 0.815-2.176 1.738v0c-0.348 0.674-0.448 1.399-0.302 2.175v0c0.18 1.023 0.767 1.883 1.761 2.58z" fill="#50a060" data-fill-palette-color="secondary"></path><path d="M254.225 191.481l0.57-1.604 1.894 0.673c-0.609-0.572-0.988-1.272-1.136-2.101v0c-0.109-0.612-0.071-1.179 0.114-1.7v0c0.549-1.546 1.672-2.286 3.368-2.22v0c-0.503-0.483-0.86-0.998-1.072-1.546v0c-0.333-0.858-0.353-1.7-0.06-2.524v0c0.419-1.179 1.218-1.928 2.398-2.249v0c0.78-0.216 1.799-0.101 3.055 0.346v0l6.937 2.465-0.588 1.652-6.898-2.451c-0.915-0.325-1.674-0.392-2.279-0.201v0c-0.635 0.195-1.067 0.615-1.296 1.259v0c-0.213 0.599-0.138 1.257 0.224 1.973v0c0.316 0.642 0.796 1.168 1.441 1.578v0l7.14 2.538-0.58 1.632-6.995-2.485c-0.812-0.288-1.508-0.351-2.088-0.188v0c-0.694 0.196-1.156 0.619-1.387 1.27v0c-0.229 0.644-0.113 1.349 0.347 2.115v0c0.345 0.58 0.856 1.091 1.533 1.535v0l6.917 2.458-0.594 1.672z" fill="#50a060" data-fill-palette-color="secondary"></path></g></svg></g></svg></g></svg></g></svg></g><defs></defs></svg><rect width="279.72" height="279.72" fill="none" stroke="none" visibility="hidden"></rect></g></svg></g></svg>